<?xml version="1.0" encoding="utf-8"?>
<!-- Generator: Adobe Illustrator 23.0.5, SVG Export Plug-In . SVG Version: 6.00 Build 0)  -->
<svg version="1.1" id="Layer_1" xmlns="http://www.w3.org/2000/svg" xmlns:xlink="http://www.w3.org/1999/xlink" x="0px" y="0px"
	 viewBox="0 0 240.2 230.5" style="enable-background:new 0 0 240.2 230.5;" xml:space="preserve">
<style type="text/css">
	.st0{fill:#F6F6FB;}
	.st1{fill:#423C4C;}
	.st2{fill:#443F4C;}
	.st3{fill:#EDB587;}
	.st4{fill:#7A1F37;}
	.st5{fill:#ECEFF0;}
	.st6{fill:#CCD0D6;}
	.st7{fill:#FFC391;}
	.st8{fill:#F2896B;}
	.st9{fill:#FF9E80;}
	.st10{fill:#992343;}
	.st11{fill:#FF579C;}
	.st12{fill:#CE2874;}
	.st13{fill:#E8D8CF;}
	.st14{fill:#CCB7AB;}
	.st15{fill:#B04F5B;}
	.st16{fill:#69869F;}
	.st17{fill:#4264BF;}
	.st18{fill:#592A4B;}
	.st19{fill:#97CBFF;}
	.st20{fill:#FFFFFF;}
	.st21{fill:#3E1D34;}
</style>
<g>
	<g>
		<path class="st0" d="M134.9,157c-3.9-2.3-6.2-7-5.2-11.5c0.9-4.1-5.4-5.8-6.3-1.7c-1.5,7.4,1.7,15,8.2,18.8
			C135.3,164.8,138.6,159.2,134.9,157z"/>
		<path class="st1" d="M155.4,211.3l-11,10c3.4,5.1,25.7,5.1,28,0l-11.2-10H155.4z"/>
		<path class="st1" d="M158.4,163.1c-1.6,0-2.9,1.3-2.9,2.9v45.2c0,1.6,1.3,2.9,2.9,2.9c1.6,0,2.9-1.3,2.9-2.9v-45.2
			C161.3,164.5,160,163.1,158.4,163.1z"/>
		<path class="st1" d="M129,81.1h-2.2c-4.4,0-7.9,3.6-7.9,7.9v49.5c0,4.4,3.6,7.9,7.9,7.9h2.2c4.4,0,7.9-3.6,7.9-7.9V89
			C137,84.6,133.4,81.1,129,81.1z"/>
		<path class="st0" d="M177.5,170.1h-37.8c-1.7,0-3.1,1.4-3.1,3.1c0,1.7,1.4,3.1,3.1,3.1h37.8c1.7,0,3.1-1.4,3.1-3.1
			C180.6,171.5,179.2,170.1,177.5,170.1z"/>
		<path class="st1" d="M179.1,154.3h-41.9c-5.1,0-9.2,4.2-9.2,9.2v0.4c0,5.1,4.2,9.2,9.2,9.2h41.9c5.1,0,9.2-4.2,9.2-9.2v-0.4
			C188.3,158.4,184.1,154.3,179.1,154.3z"/>
		<g>
			<path class="st0" d="M158.4,207.7c-7.5,0-21.7-1.3-21.7-6.1s14.2-6.1,21.7-6.1c7.5,0,21.7,1.3,21.7,6.1S165.8,207.7,158.4,207.7z
				 M158.4,197.7c-12.9,0-19.5,2.7-19.5,3.9c0,1.2,6.6,3.9,19.5,3.9c12.9,0,19.5-2.7,19.5-3.9C177.8,200.5,171.2,197.7,158.4,197.7z
				"/>
		</g>
		<polygon class="st2" points="155.4,192.8 161.3,192.8 161.3,199.4 155.4,197.8 		"/>
	</g>
	<path class="st3" d="M135.9,55.8c0,0,1.1,7.6,4.2,10c3.1,2.4,3,3.4,3,3.4s1.8-5.1,1.8-7.5C144.9,59.5,135.9,55.8,135.9,55.8z"/>
	<g>
		<path class="st4" d="M220.3,199.7c0,0,5.7,3.5,9.2,5.8c3.6,2.3,6.7,1.5,8.7,3.4c0.7,0.6,1.1,1.2,1.3,1.8c0.5,1.1,0.4,2,0.4,2
			s-5.3,4.4-12.6,3.5c-6.6-0.9-8.5-1.6-10.6-1.6c-2.1,0-3.4,0.2-3.7-0.1c-0.1-0.1-0.3-0.9-0.5-2c-0.3-2.6-0.3-6.6,0.7-9.7
			C214.8,198.1,220.3,199.7,220.3,199.7z"/>
	</g>
	<g>
		<path class="st5" d="M239.6,210.6c0.6,1.1,0.6,2.1,0.6,2.1s-5.3,4.4-12.6,3.6c-5.3-0.6-8.4-1.7-10.5-1.7c-2.1,0-3.7,0.1-4.1-0.1
			c-0.5-0.3-0.4-2.2-0.4-2.2c7.5-0.8,13.9,2,18.3,1.4C236.7,213,239.6,210.6,239.6,210.6z"/>
	</g>
	<g>
		<path class="st6" d="M214.6,207.8c0,0,0.1,0,0.2-0.1c0.1,0,0.3-0.1,0.5-0.1c0.2,0,0.4-0.1,0.7-0.1c0.3,0,0.6,0,1,0
			c0.7,0,1.5,0.2,2.4,0.5c0.4,0.1,0.8,0.3,1.2,0.5c0.4,0.2,0.8,0.4,1.2,0.6c0.4,0.2,0.8,0.4,1.2,0.5c0.2,0.1,0.4,0.2,0.6,0.2
			c0.2,0.1,0.4,0.1,0.6,0.2c0.8,0.3,1.5,0.5,2.2,0.6c0.7,0.1,1.2,0.2,1.6,0.3c0.4,0,0.6,0.1,0.6,0.1s-0.2,0.1-0.6,0.1
			c-0.4,0.1-1,0.1-1.7,0.1c-0.7,0-1.5-0.1-2.4-0.3c-0.2-0.1-0.4-0.1-0.6-0.2c-0.2-0.1-0.4-0.1-0.7-0.2c-0.4-0.2-0.9-0.3-1.3-0.5
			c-0.4-0.2-0.8-0.4-1.2-0.6c-0.4-0.2-0.8-0.4-1.2-0.5c-0.4-0.2-0.7-0.3-1.1-0.4c-0.4-0.1-0.7-0.2-1-0.3c-0.6-0.2-1.2-0.2-1.6-0.2
			c-0.2,0-0.4,0-0.5,0C214.7,207.8,214.6,207.8,214.6,207.8z"/>
	</g>
	<path class="st7" d="M158.5,45.5l-6.6-7.7c0,0,5.6,0.4,9.6,5.7c4.1,5.4,5.1,18.5,3.8,29.6c-1.2,11.1-0.7,17.7-0.7,17.7
		s-17.4-6.2-15.4-13.5C151.2,70.1,158.5,45.5,158.5,45.5z"/>
	<path class="st8" d="M190.5,170.7c0,0,4.7,12.9,12.3,20.4c7.6,7.5,10.5,12,10.5,12s7-0.7,7.3-3.3c0,0-4.5-5.6-12-18.3
		c-7.5-12.8-9.9-17-9.9-17L190.5,170.7z"/>
	<path class="st9" d="M196.6,168.4c0,0,0,13.8,4.6,23.4c4.6,9.6,5.9,15.5,5.9,15.5s6.7,1.1,7.9-1.2c0,0-2.4-6.7-5.1-21.3
		c-2.7-14.6-3.5-19.4-3.5-19.4L196.6,168.4z"/>
	<g>
		<path class="st10" d="M214.6,204.8c0,0,4.9,3.6,8.4,6c3.5,2.4,6.7,1.7,8.6,3.6c0.6,0.6,1,1.3,1.3,1.8c0.5,1.1,0.4,2,0.4,2
			s-5.5,4.2-12.7,3.1c-6.6-1.1-8.4-1.9-10.5-2c-2.1-0.1-3.4,0.1-3.7-0.2c-0.1-0.1-0.3-0.9-0.4-2c-0.2-2.6-0.1-6.6,1-9.7
			C208.5,203,214.6,204.8,214.6,204.8z"/>
	</g>
	<g>
		<path class="st5" d="M232.9,216.3c0.5,1.1,0.5,2.1,0.5,2.1s-5.4,4.3-12.7,3.2c-5.2-0.8-8.3-1.9-10.5-2c-2.1-0.1-3.7,0-4.1-0.2
			c-0.5-0.3-0.3-2.2-0.3-2.2c7.5-0.6,13.8,2.4,18.2,2C229.9,218.5,232.9,216.3,232.9,216.3z"/>
	</g>
	<g>
		<path class="st6" d="M208,212.6c0,0,0.1,0,0.2-0.1c0.1,0,0.3-0.1,0.5-0.1c0.2,0,0.4-0.1,0.7-0.1c0.3,0,0.6,0,1,0
			c0.7,0.1,1.5,0.3,2.3,0.6c0.4,0.2,0.8,0.3,1.2,0.5c0.4,0.2,0.8,0.4,1.2,0.6c0.4,0.2,0.8,0.4,1.2,0.6c0.2,0.1,0.4,0.2,0.6,0.3
			c0.2,0.1,0.4,0.2,0.6,0.2c0.8,0.3,1.5,0.5,2.2,0.7c0.7,0.1,1.2,0.3,1.6,0.3c0.4,0.1,0.6,0.1,0.6,0.1s-0.2,0.1-0.6,0.1
			c-0.4,0.1-1,0.1-1.7,0.1c-0.7,0-1.5-0.1-2.4-0.4c-0.2-0.1-0.4-0.1-0.6-0.2c-0.2-0.1-0.4-0.2-0.6-0.2c-0.4-0.2-0.8-0.4-1.3-0.6
			c-0.4-0.2-0.8-0.4-1.2-0.6c-0.4-0.2-0.8-0.4-1.2-0.6c-0.4-0.2-0.7-0.3-1.1-0.5c-0.4-0.1-0.7-0.3-1-0.3c-0.6-0.2-1.2-0.3-1.6-0.3
			c-0.2,0-0.4,0-0.5,0C208.1,212.6,208,212.6,208,212.6z"/>
	</g>
	<path class="st11" d="M141,77.8c0,0-5.2,5.5-6,18.4c-0.9,12.9,3.4,59.9,10.8,64.6c7.4,4.7,36.6,3.9,39,5.8c2.4,1.8,4.7,5.6,4.7,5.6
		s24.4,0.9,30.3-8.6c0,0-7.1-13.1-15.2-19.9c-8.1-6.7-22.2-17.4-29.4-35.9C167.8,89.2,154.2,81,154.2,81L141,77.8z"/>
	<path class="st8" d="M154.4,73.7c0,0-1,0.4-1.5,4.3c-0.5,3.9-11.3-1-10.5-3.5c0-0.1,1.3-10.8,1.3-10.8L154.4,73.7z"/>
	<path class="st9" d="M162.2,52.7c0,0,1.3,8.2,0.2,12.8c-1.1,4.6-2.6,7.7-5.5,8.2c-2.9,0.5-8.3-1.5-11.4-5.3
		c-3.2-3.8-1.8-21.2,2.9-23.8C152.9,42,160.3,43.5,162.2,52.7z"/>
	<path class="st12" d="M142.4,74.4c0,0-0.8,2.5-1.4,3.3c0,0,4.1,4.4,13.3,3.2c0,0-0.8-2.8-1.2-3C152.6,77.7,148,78.1,142.4,74.4z"/>
	<path class="st1" d="M119.5,51l-7.8-4.5c-0.8-0.4-1.8-0.2-2.2,0.6c-0.4,0.8-0.2,1.8,0.6,2.2l7.8,4.5c0.8,0.4,1.8,0.2,2.2-0.6
		C120.5,52.5,120.3,51.5,119.5,51z"/>
	<path class="st9" d="M86.8,71.3c0,0,2.9,4.9,11.3,4.4c8.4-0.4,16.1-16.9,16.1-16.9s10.1-8,10-8.9c-0.1-0.9-6.2-4.6-9.3-4.3
		c-3.2,0.2-3.2,5.4-8.5,11.4c-5.3,6-7.5,9.6-13.8,4.6C87,57,86.8,71.3,86.8,71.3z"/>
	<path class="st8" d="M61.8,27.8c0,0,1.1,8.5,0,12.1s-4.5,5.4-4.5,5.4s3.9,13.8,16.3,11.4c8.7-1.7,7.7-14.4,4.8-14.2
		c-0.7,0-4.4-0.5-4.8-2.6c-0.4-2.1,0-7.2,0-7.2L61.8,27.8z"/>
	<path class="st13" d="M53.7,47.3c0,0-5.7,1.5-9.3,10.5c-3.6,9-3.6,13.6-3.6,13.6s11.4,4.5,11.6,3.9c0.1-0.6,2-4.9,2-4.9l3,8.5
		L89,61.2l3.1-1.7c0,0-9-18.3-11.6-17.1c-1.3,0.6-2.1,0.2-2.1,0.2c-2.8,7.2-13.6,8.1-21.1,2.8L53.7,47.3z"/>
	<path class="st14" d="M90.9,58.9c-2.9,2.5-6.3,3.9-10.1,4.4c-2.5,0.4-1.6,4.2,0.9,3.8c4.5-0.7,8.5-2.5,11.9-5.4
		C95.5,60.1,92.8,57.3,90.9,58.9z"/>
	<g>
		<path class="st15" d="M113.3,224.3c-5.1-0.5-15.4-0.8-15.4-0.8s-0.5,2.2-0.3,2.7c0.2,0.4,7.5,0.4,10.3,0.7
			c2.8,0.3,10.2,0.6,11.1,0C119.9,226.3,118.4,224.8,113.3,224.3z"/>
		<path class="st15" d="M52.2,224.5c0,0-5.4,3.5-4.2,4.3c1.2,0.8,4.8,2.3,8.1,1.4c4.5-1.1,9.4-6.3,10.4-7.5c1-1.2,1-0.9,1.2-1.4
			c0.2-0.6,0-2.5,0-2.5L52.2,224.5z"/>
	</g>
	<path class="st9" d="M79.5,11.9c0,0,1.1,9.3,0,13.9S76.9,33.5,74,34c-2.9,0.5-7.5-1-10.7-4.9c-3.2-3.8-2.5-21.6,2.2-24.3
		C70.1,2.3,79,4.8,79.5,11.9z"/>
	<g>
		<path class="st9" d="M61.7,212.7c-0.2,0,1.5,0.8-1.1,4c-2.6,3.2-8.3,7.8-8.3,7.8s4.3,2.3,8.6,0c4.3-2.3,7-5.7,7-5.7l-0.7-6.4
			L61.7,212.7z"/>
		<path class="st9" d="M104.2,218.4c-0.9-2.3-1.1-6-1.1-6h-5.2c0,0,1.3,4.3,0.7,7.1c-0.7,2.8-0.7,4.1-0.7,4.1s9.1,1.2,15.4,0.8
			C113.3,224.3,105,220.7,104.2,218.4z"/>
	</g>
	<path class="st16" d="M58.8,89.7c0,0-9.6,20-9.4,37.2c0.2,17.2,3.5,33.9,4.2,43.7c0.8,9.8,7.6,43,7.6,43h7.2c0,0-1.9-38.2-2-50.4
		c-0.1-12.2,1.2-23.2,1.2-23.2s11.2,1.5,12.3,7.8c1.2,6.3,6.1,19,8.7,29.6c2.6,10.6,8.1,36.2,8.1,36.2h8.1c0,0-3.2-36.5-6.3-49.1
		c-3.1-12.6-5.5-24.5-5.5-24.5L58.8,89.7z"/>
	<path class="st9" d="M41.5,71.7c0,0,0.7,3.5-5.9,8.3c-6.5,4.8-10.7,9.5-13.7,8.6c-1.5-0.5-6.1,5.2-3.7,5.2c2.4,0-0.3,6.6-0.3,6.6
		s2.3,4.5,8.6-4.2c3-4.2,15.9-8.1,19.7-11.5c3.8-3.4,5.4-9.6,5.4-9.6L41.5,71.7z"/>
	<path class="st10" d="M79.5,11.9c0,0.3-0.7-6-6.7-7c-3.3-0.6-2.5,3.2-7.4,10.4c-2.9,4.2-0.1,10.1-1.9,15.7
		c-1.8,5.6-3.4,7.9-3.4,7.9s-2.8-5.2-10.6-9.7C41.6,24.8,49.7,3.9,59.1,1S79.4,1.4,79.5,11.9z"/>
	<path class="st17" d="M57.3,45.4l-3.7,2c0,0,10.9,21.8,3.7,31.6c0,0,2.4,10.1,1.1,13.5c-1.3,3.4-4.8,40-0.3,53.4
		c0,0,30.4,14.9,42.8,0.5c0,0-6.9-17-9-33.1c-2.1-16.1-6.7-27.1-6.7-27.1s6-17.7,5.4-20.6c-0.5-2.9-10.1-23-10.1-23l-2.1,0.2
		c0,0,3.8,11.4-3.4,13.8C67.8,58.7,61.1,55.3,57.3,45.4z"/>
	<path class="st18" d="M67.7,63.7c0,0,10.3,1.1,16.3-1.4c0,0,0.6,5.6,0,9.7c0,0-6,2.5-15,0.9L67.7,63.7z"/>
	<path class="st19" d="M24.2,112c0,0,0.4-18.9,0.1-22.9c-0.2-2.4,6.2-2.6,6.2-5.8c0.1-4.4-3.2-9.3-5.9-8.7
		c-2.7,0.6-25.4,16.2-25.7,17c-0.3,0.9,4,6.9,5.4,6.9c1.4-0.1,12-6,12-6c2,0.4,3.4,20,4.4,20.9C21.7,114.2,23.3,114.2,24.2,112z"/>
	<path class="st14" d="M52,72.9c-3.8-0.2-7.3-1.6-10.4-3.8c-2.1-1.5-4,1.9-2,3.4c3.7,2.6,7.9,4,12.4,4.3C54.5,77,54.5,73.1,52,72.9z
		"/>
	<path class="st8" d="M20.6,102.4c-0.8,1-1.6,0.8-4.2-2.6c-2.6-3.4,0.2-8.4,2.6-7C21.3,94.3,23.3,98.8,20.6,102.4z"/>
	<path class="st9" d="M24.4,88.3c0,0-1.8,0-3.4,1.5c-0.7,0.6-2.6,2.8-3.1,3.6c-0.6,0.8,1.5,0.7,2.7-0.2c1.9-1.6,3.6-0.2,5.2-0.4
		C27.3,92.5,24.4,88.3,24.4,88.3z"/>
	<path class="st7" d="M158.7,45.8c0,0-7.9-1-11,5.2c-9.1,18.3-14.9,1.8-20.1,1.8c-7.8,0-0.9,12.3-0.9,12.3
		c-5.5,7.2-10.2,3.1-13.8,3.8c-0.2,0-3.8-12.4,2.9-19.9c4.3-4.9,8.7-0.7,13-2.1c5.4-1.7,6.3-6,14.7-8.7
		C151.6,35.5,155.9,38.4,158.7,45.8z"/>
	<path class="st1" d="M129.9,57.6c0.8-2.3-0.1-4.6-1.9-5.2c-1.8-0.6-3.9,0.7-4.7,3c-0.8,2.3,0.1,4.6,1.9,5.2
		C127.1,61.2,129.2,59.9,129.9,57.6z"/>
	<path class="st20" d="M128.7,57.1c0.5-1.4,0-2.8-1-3.1c-1-0.3-2.2,0.5-2.7,1.9c-0.5,1.4,0,2.8,1,3.1
		C127,59.3,128.3,58.5,128.7,57.1z"/>
	<path class="st9" d="M144.3,57.4c0,0-2-2.4-3.7-1.2c-1.5,1,0.4,8.9,2.2,8.5c1.2-0.3,1.4-0.9,1.4-0.9S145.6,58,144.3,57.4z"/>
	<path class="st20" d="M142.6,62.1c-1.1,0-1.1,1.7,0,1.7C143.8,63.9,143.8,62.1,142.6,62.1z"/>
	<path class="st21" d="M29.1,193.8c3-5.7,1.8-12.2-1.1-17.6c-3.5-6.6-9.3-11.6-13-18c-4.5-7.8-1-15.6,2.8-22.9
		c1.8-3.4,3.6-6.9,4.6-10.6c1-4,1.1-8.2,0.4-12.3c-0.1-0.8-1.4-0.5-1.3,0.3c0.8,4.5,0.5,9.1-1,13.5c-1.3,3.8-3.3,7.2-5.1,10.8
		c-3.1,6.1-5.6,13.2-2.6,19.8c3.3,7.3,9.9,12.4,13.7,19.4c1.9,3.4,3.2,7.3,3,11.3c-0.2,4.2-2.5,7.5-5,10.6c-1.8,2.3-5,5.5-4.7,8.7
		c0.3,2.9,3.4,4.1,5.8,4.8c0.8,0.3,1.1-1,0.3-1.3c-1.5-0.5-3.5-1.1-4.4-2.5c-1.3-1.9,0.5-4.4,1.7-6
		C25.1,199.2,27.5,196.8,29.1,193.8z"/>
</g>
</svg>
