<?xml version="1.0" encoding="utf-8"?>
<!-- Generator: Adobe Illustrator 23.0.5, SVG Export Plug-In . SVG Version: 6.00 Build 0)  -->
<svg version="1.1" id="Layer_1" xmlns="http://www.w3.org/2000/svg" xmlns:xlink="http://www.w3.org/1999/xlink" x="0px" y="0px"
	 viewBox="0 0 3351.8 1697.3" style="enable-background:new 0 0 3351.8 1697.3;" xml:space="preserve">
<style type="text/css">
	.st0{opacity:0.5;fill:#F993AE;}
	.st1{opacity:0.8;fill:#F993AE;}
	.st2{fill:#FCE9E2;}
	.st3{fill:#FFA697;}
	.st4{fill:#97CBFF;}
	.st5{fill:#4A70D6;}
	.st6{fill:#FF579C;}
	.st7{fill:#5B4956;}
	.st8{fill:#492745;}
	.st9{fill:#2C4482;}
	.st10{fill:#4E69A5;}
	.st11{fill:#301A28;}
	.st12{fill:#ADD5F7;}
	.st13{fill:#4B489B;}
	.st14{opacity:0.8;fill:#FCE9E2;}
	.st15{fill:#FF5C97;}
	.st16{fill:#8E3E00;}
	.st17{fill:#7D71BA;}
	.st18{fill:#635BAC;}
	.st19{stroke:#FFFFFF;stroke-width:7;stroke-miterlimit:10;}
	.st20{fill:#FFFFFF;stroke:#FFFFFF;stroke-width:7;stroke-miterlimit:10;}
</style>
<path class="st0" d="M3026.1,639.2c-125.2-88.9-295.9-137.5-442.9-207.5c-164-78.1-219.7-175.8-345.9-275.1
	c-78.7-61.9-178.8-115.6-294.6-140.4C1810.8-12.3,1668.9-0.7,1547.3,32c-270.1,72.6-440.1,236.6-705.4,314.1
	c-199.8,58.3-448.4,61-584.6,183c-136.9,122.7-130,304.2-44.6,450.8c98.4,169.1,325.9,338.4,615.6,355.2
	c546.4,31.7,1068.2,19.7,1601-21.7c194.4-15.1,390.3-42.4,547.9-111.3C3283.5,1068.1,3291.6,827.6,3026.1,639.2z"/>
<path class="st0" d="M2511.3,136.1c46.5-8.7,101-1.2,151.4-2.3c56.2-1.2,84.1-20.7,132.1-32.1c30-7.1,65-9.4,101-2.2
	c41.1,8.3,80,28.5,110.6,51.8c68,51.9,96.3,116.3,162.3,169c49.7,39.7,120.1,70.3,144,119.3c23.9,49.3-0.2,97.1-42.5,126.1
	c-48.7,33.4-134.2,51.4-218.7,21c-159.4-57.2-306.4-123.2-453-198.4c-53.5-27.4-105.9-58.3-142.3-95.7
	C2385.5,220,2412.6,154.6,2511.3,136.1z"/>
<circle class="st0" cx="796.4" cy="188.5" r="114.8"/>
<g>
	<ellipse class="st1" cx="1602.2" cy="1616.9" rx="220.3" ry="16.5"/>
	<g>
		<g>
			
				<rect x="1521.4" y="1064.4" transform="matrix(0.4881 -0.8728 0.8728 0.4881 -139.9268 1891.5247)" class="st2" width="42.3" height="1.3"/>
		</g>
		<g>
			<path class="st3" d="M1629.7,1585.3c2.2-0.1,31.6,0.2,36.3,2.6c3.3-56.8,13.8-169.4,13.8-169.4l-64.6-26
				C1615.2,1392.4,1629.1,1585.3,1629.7,1585.3z"/>
			<path class="st3" d="M1595.4,1616.9c-0.3,0-0.6,0-1,0h2.1C1596,1616.9,1595.6,1616.9,1595.4,1616.9z"/>
		</g>
		<path class="st4" d="M1666.1,1587.8c0.1-3-34.8-4.5-36.8-3.2c-10.5,6.8-19.7,13-34.9,17.9c-5.4,1.7-27.3,8.3-21.8,13.2
			c2.7,2.4,18.9,2.4,22.8,2.4c5.2,0.1,53.6-0.3,66.7-1.5c1.8-0.2,3.3-1.7,3.3-3.5C1665.6,1606,1666.1,1587.8,1666.1,1587.8z"/>
		<path class="st5" d="M1590.9,1212.3l-59.1,246.3c0,0,143.5,53,230.8,0l-45-278L1590.9,1212.3z"/>
		
			<ellipse transform="matrix(0.7071 -0.7071 0.7071 0.7071 -48.1714 1406.8029)" class="st3" cx="1674.1" cy="761.5" rx="70.1" ry="70.1"/>
		<polygon class="st3" points="1653.9,811.8 1653.9,882.5 1674.6,865.6 1674.6,796.9 		"/>
		<path class="st2" d="M1643.3,777.2c-1.8-3.6-5.8-5.5-9.7-4.5l-27.3,6.6c4.7,18.1,16.5,33.6,32.7,42.9c3.4-1,6.3-1.9,8.8-2.6
			c5-1.4,8.2-6.4,7.1-11.5C1652.5,796.7,1646.8,784.3,1643.3,777.2z"/>
		<path class="st6" d="M1640.3,850.5c0,0,38.4-18.2,53.8-14.7c15.4,3.5,24.9,34.6,29.2,98.6c4.3,64,7.7,76,13.7,114.9
			c6.1,38.9,15.4,140.1-9.7,154.8c-25.1,14.7-138.9,17.2-145.5,4c-13.6-27.2,14.9-168.2,12-235.7S1640.3,850.5,1640.3,850.5z"/>
		<path class="st6" d="M1664.4,925.8c0,0-52.8,72.5-83,82.8c-30.2,10.4-91.6-57-91.6-57l-28.5,16.4c0,0,73.9,101.2,117,94.3
			c43.1-6.9,120.4-68.1,120.4-68.1L1664.4,925.8z"/>
		<path class="st2" d="M1495.6,1072.8h168.3c14.1,0,23.7,16.2,18.5,31.1l-25.6,72.7c-3,8.6-10.4,14.3-18.5,14.3h-118.5
			c-8.3,0-15.7-5.8-18.6-14.6l-24.2-72.7C1472,1088.7,1481.7,1072.8,1495.6,1072.8z"/>
		<path class="st3" d="M1489.8,951.7c0,0,2.6-21.8-7.8-20.5c-10.4,1.3-9.7,14.9-5.8,20.5c0,0-16.9-21.2-20.8-33.5
			c-3.9-12.3-22.7-3.5-16.9,17.1c5.8,20.5,22.7,32.9,22.7,32.9L1489.8,951.7z"/>
		<g>
			
				<rect x="1637.6" y="760.4" transform="matrix(0.7805 -0.6252 0.6252 0.7805 -110.6974 1206.901)" class="st2" width="51.4" height="1.3"/>
		</g>
		<g>
			
				<rect x="1636.5" y="784.6" transform="matrix(0.6461 -0.7633 0.7633 0.6461 -7.3374 1554.6504)" class="st2" width="72.6" height="1.3"/>
		</g>
		<g>
			
				<rect x="1597.5" y="1005.5" transform="matrix(0.8978 -0.4405 0.4405 0.8978 -297.6067 810.9573)" class="st2" width="1.3" height="82.3"/>
		</g>
		<path class="st7" d="M1614.1,729.5c11.2,2.9,27.1-0.6,37.7,3c15.7,5.4,25.2,18.2,29,34.1c7.7,31.6-9.8,63.6-0.9,93.7
			c14.3,48.3,79.6,54.2,115.9,28c29.4-21.2,9.5-61.5-3.8-86.1c-17.1-31.9-29.3-68.5-53.1-96.2c-18.3-21.4-46.3-35-74.6-37.6
			c-20.5-1.8-78.3,5.3-69.5,38.1C1597.2,715.6,1604.5,727,1614.1,729.5z"/>
	</g>
</g>
<g>
	<ellipse class="st1" cx="3007.8" cy="1656.7" rx="220.3" ry="16.5"/>
	<g>
		<g>
			<g>
				
					<rect x="2927" y="1104.2" transform="matrix(0.4881 -0.8728 0.8728 0.4881 544.885 3138.7117)" class="st8" width="42.3" height="1.3"/>
			</g>
		</g>
		<g>
			<path class="st3" d="M3035.3,1625.1c2.2-0.1,31.6,0.2,36.3,2.6c3.3-56.8,13.8-169.4,13.8-169.4l-64.6-26
				C3020.8,1432.2,3034.7,1625.1,3035.3,1625.1z"/>
			<path class="st3" d="M3001,1656.7c-0.3,0-0.6,0-1,0h2.1C3001.6,1656.7,3001.2,1656.7,3001,1656.7z"/>
		</g>
		<path class="st4" d="M3071.7,1627.6c0.1-3-34.8-4.5-36.8-3.2c-10.5,6.8-19.7,13-34.9,17.9c-5.4,1.7-27.3,8.3-21.8,13.2
			c2.7,2.4,18.9,2.4,22.8,2.4c5.2,0.1,53.6-0.3,66.7-1.5c1.8-0.2,3.3-1.7,3.3-3.5C3071.2,1645.8,3071.7,1627.6,3071.7,1627.6z"/>
		<path class="st6" d="M2996.5,1252.1l-59.1,246.3c0,0,143.5,53,230.8,0l-45-278L2996.5,1252.1z"/>
		
			<ellipse transform="matrix(0.7071 -0.7071 0.7071 0.7071 335.3832 2412.3828)" class="st3" cx="3079.7" cy="801.3" rx="70.1" ry="70.1"/>
		<polygon class="st3" points="3059.5,851.6 3059.5,922.3 3080.3,905.4 3080.3,836.7 		"/>
		<path class="st2" d="M3048.9,817c-1.8-3.6-5.8-5.5-9.7-4.5l-27.3,6.6c4.7,18.1,16.5,33.6,32.7,42.9c3.4-1,6.3-1.9,8.8-2.6
			c5-1.4,8.2-6.4,7.1-11.5C3058.1,836.5,3052.5,824.1,3048.9,817z"/>
		<path class="st5" d="M3045.9,890.3c0,0,38.4-18.2,53.8-14.7c15.4,3.5,24.9,34.6,29.2,98.6s7.7,76,13.7,114.9
			c6.1,38.9,15.4,140.1-9.7,154.8c-25.1,14.7-138.9,17.2-145.5,4c-13.6-27.2,14.9-168.2,12-235.7S3045.9,890.3,3045.9,890.3z"/>
		<path class="st5" d="M3070,965.6c0,0-52.8,72.5-83,82.8c-30.2,10.4-91.6-57-91.6-57l-28.5,16.4c0,0,73.9,101.2,116.9,94.3
			c43.1-6.9,120.4-68.1,120.4-68.1L3070,965.6z"/>
		<path class="st3" d="M2895.4,991.5c0,0,2.6-21.8-7.8-20.5c-10.4,1.3-9.7,14.9-5.8,20.5c0,0-16.9-21.2-20.8-33.5
			c-3.9-12.3-22.7-3.5-16.9,17.1c5.8,20.5,22.7,32.9,22.7,32.9L2895.4,991.5z"/>
		<g>
			
				<rect x="3043.2" y="800.2" transform="matrix(0.7805 -0.6252 0.6252 0.7805 172.9595 2094.373)" class="st2" width="51.4" height="1.3"/>
		</g>
		<g>
			
				<rect x="3042.1" y="824.4" transform="matrix(0.6461 -0.7633 0.7633 0.6461 459.7451 2641.5874)" class="st2" width="72.6" height="1.3"/>
		</g>
		<g>
			<g>
				
					<rect x="3003.1" y="1045.3" transform="matrix(0.8978 -0.4405 0.4405 0.8978 -171.4315 1434.1705)" class="st8" width="1.3" height="82.3"/>
			</g>
		</g>
		<path class="st7" d="M3028.8,1295.8h-105.4c-18.1,0-32.8-14.7-32.8-32.8v-139.4h171V1263C3061.6,1281.1,3047,1295.8,3028.8,1295.8
			z"/>
		<path class="st7" d="M3141.1,844.6c6.7-9.6,11.4-20.8,13-33.3c5.5-41.1-23.4-78.9-64.5-84.4c-38.7-5.2-74.4,20.1-83.1,57.4
			c0,0,82.7,0,82.8,0c1,0,4.3-3.8,5.4-4.4c2.1-1.2,5-2.5,7.3-1.2c15.5,9,9.3,36,3.1,48.8c-1.5,3.1-3.3,6-5.3,8.9
			c-0.9,1.3-5.2,8.2-6.8,8.2C3093.1,844.6,3141.1,844.6,3141.1,844.6z"/>
	</g>
</g>
<g>
	<ellipse class="st1" cx="805" cy="1557.3" rx="607.7" ry="31.7"/>
	<g>
		<ellipse class="st6" cx="1005.9" cy="1042.7" rx="150.4" ry="179.2"/>
		<path class="st6" d="M909.1,1042.7c0-88.1,53.3-161.3,123.6-176.3c-8.7-1.9-17.7-2.8-26.8-2.8c-83.1,0-150.4,80.2-150.4,179.2
			c0,99,67.3,179.2,150.4,179.2c9.1,0,18.1-1,26.8-2.8C962.4,1204,909.1,1130.8,909.1,1042.7z"/>
		<path class="st6" d="M1102.7,1044.6c0-88.1-53.3-161.3-123.6-176.3c8.7-1.9,17.7-2.8,26.8-2.8c83.1,0,150.4,80.2,150.4,179.2
			s-67.3,179.2-150.4,179.2c-9.1,0-18.1-1-26.8-2.8C1049.4,1205.9,1102.7,1132.6,1102.7,1044.6z"/>
		<path class="st7" d="M755,1061.6H501.7c-9.3,0-16.8-7.5-16.8-16.8V884.1c0-9.3,7.5-16.8,16.8-16.8H755c9.3,0,16.8,7.5,16.8,16.8
			v160.8C771.7,1054.1,764.2,1061.6,755,1061.6z"/>
		<path class="st7" d="M679.9,1101.4c-27.5-27.5-26.8-91.8-26.8-91.8h-24.8h-24.8c0,0,0.7,64.3-26.8,91.8
			c-9.1,9.1,21.2,13.7,51.6,13.7C658.7,1115.1,689,1110.5,679.9,1101.4z"/>
		<path class="st7" d="M1114.2,818.8c4.7-12.7,7.3-26.3,7.3-40.6c0-64.1-52-116.1-116.1-116.1s-116.1,52-116.1,116.1
			c0,14.3,2.6,28,7.3,40.6H1114.2z"/>
		
			<ellipse transform="matrix(0.7071 -0.7071 0.7071 0.7071 -255.7737 938.8072)" class="st3" cx="1005.4" cy="778.1" rx="65.3" ry="65.3"/>
		<path class="st7" d="M1066.4,755c0,0,9.7-12.8,4.2-19.5c-5.4-6.7,0.1,1.4-5.9,9.7h-61.9l-11.4-25.8l-8,26.4h-37.2
			c0,0-9.7-9.4-16.4-0.2c-6.7,9.2,10.2,20.1,10.2,20.1h-44.4l23.5-46.2c0,0,57-40.9,59.6-42.9c2.7-2,104.5,44.6,104.5,44.6v30.5
			L1066.4,755z"/>
		<rect x="989.5" y="813.4" class="st3" width="32.8" height="55.5"/>
		<path class="st9" d="M1216,1555.3H451.1c-24.1,0-43.7-19.6-43.7-43.7V1132c0-24.1,19.6-43.7,43.7-43.7H1216
			c24.1,0,43.7,19.6,43.7,43.7v379.6C1259.7,1535.7,1240.1,1555.3,1216,1555.3z"/>
		<path class="st2" d="M971.4,792.1v41.8c9.9,6,21.5,9.5,34,9.5c12.3,0,23.9-3.4,33.7-9.4v-41.9
			C1000.9,801.5,971.4,792.1,971.4,792.1z"/>
		<path class="st3" d="M948.6,765.4c-2.5,2.5-7.3,1.8-10.6-1.5c-3.3-3.3-4-8.1-1.5-10.6c2.5-2.5,7.3-1.8,10.6,1.5
			C950.5,758.1,951.2,762.9,948.6,765.4z"/>
		<path class="st3" d="M1073.7,753.3c2.5,2.5,1.8,7.3-1.5,10.6s-8.1,4-10.6,1.5c-2.5-2.5-1.8-7.3,1.5-10.6
			C1066.4,751.4,1071.2,750.8,1073.7,753.3z"/>
		<g>
			
				<rect x="1028.7" y="771.8" transform="matrix(0.5606 -0.8281 0.8281 0.5606 -177.3066 1210.8954)" class="st2" width="47.3" height="1.3"/>
		</g>
		<g>
			
				<rect x="1016.9" y="799.3" transform="matrix(0.4073 -0.9133 0.9133 0.4073 -105.7428 1436.9923)" class="st2" width="74.7" height="1.3"/>
		</g>
		<g>
			
				<rect x="957.5" y="749.1" transform="matrix(0.8283 -0.5602 0.5602 0.8283 -268.3597 669.4449)" class="st2" width="1.3" height="47.1"/>
		</g>
		<g>
			
				<rect x="955.6" y="762.9" transform="matrix(0.9135 -0.4068 0.4068 0.9135 -242.7364 458.2034)" class="st2" width="1.3" height="74.3"/>
		</g>
		<ellipse class="st3" cx="1005.9" cy="881.9" rx="66.4" ry="18.4"/>
	</g>
</g>
<g>
	<ellipse class="st1" cx="2308.6" cy="1624.1" rx="220.3" ry="16.5"/>
	<g>
		<circle class="st3" cx="2352.5" cy="812" r="72.4"/>
		<path class="st2" d="M2315.5,814.1c-7.7-3.7-25.9,5.3-34.4,9.9c3.7,21.8,17.1,40.3,35.6,50.9c8-4.8,12.6-9.9,12.6-9.9
			S2325.8,819,2315.5,814.1z"/>
		<path class="st3" d="M2339,874.9c0,0,10.1,22.1,7.4,52.9l38.9-8c0,0-1.3-36.2-14.7-53.6L2339,874.9z"/>
		<path class="st7" d="M2341.4,1578.4c0,0,3.1,7.3-5.8,18c-8.9,10.7-55.9,15.8-51.6,24.9c3.7,7.7,9.1,10.7,19.6,10.7
			c10.5,0,65.4,3,75.2-8.7c9.8-11.6-1-51.6-1-51.6L2341.4,1578.4z"/>
		<path class="st10" d="M2319.6,927.8c0,0-36,51.6-72.9,75.7c-37,24.1-63.8-3.4-70.5-37.9l-37.5,15.1c0,0,30.2,140,170.2,57
			L2319.6,927.8z"/>
		<path class="st11" d="M2099.8,906.8c7.1-0.7,16.2-1.9,22.3-2.6c3.8-0.5,7.4,1.8,8.7,5.4l24.2,68.5c1.4,3.9-0.4,8.2-4.1,10.1
			l-22,10.9c-4.5,2.2-9.9-0.1-11.4-4.8l-24.7-76.8C2091.3,912.5,2094.6,907.4,2099.8,906.8z"/>
		<path class="st3" d="M2147.9,962.2c2.8,3.6,4.5,8.1,6,12.3l16.5-6.6l0,0c0,0,1.7-12.2-7.7-18.5c-4.7-3.2-11.7-6.1-17.5-4.9
			c-3.8,0.8-6.9,5.1-6.8,8.9C2138.8,959.1,2145,958.5,2147.9,962.2z"/>
		<path class="st12" d="M2418.7,1193.8c0,0,12.1,10.7,0,92.5c-11.3,76.8-40.4,204.3-23.9,286.2c1.6,7.9-4.5,15.4-12.6,15.4h-52.8
			c0,0,4.5-139.4-24.1-211.7c-28.6-72.4-9.8-194.3-9.8-194.3L2418.7,1193.8z"/>
		<path class="st9" d="M2326.3,919.1c0,0,86-37.5,98.6-8.7c11.6,26.6,8.5,229.3,16.4,283.3c0.9,6.3-2.6,12.4-8.5,14.7
			c-26.6,10.6-97,34.2-141.4,7.5c-55.6-33.5-35.5-71-24.8-88.4S2288.1,919.7,2326.3,919.1z"/>
		<path class="st10" d="M2339,961.1c27.5,76.8-36.4,200.1-36.4,200.1l20.5,20.5c62.5-61.6,87.6-229.6,87.6-229.6L2339,961.1z"/>
		<g>
			
				<rect x="2311.9" y="801.3" transform="matrix(0.8316 -0.5554 0.5554 0.8316 -52.4272 1431.0693)" class="st2" width="43.6" height="1.3"/>
		</g>
		<g>
			
				<rect x="2310" y="825.7" transform="matrix(0.5675 -0.8234 0.8234 0.5675 337.912 2295.946)" class="st2" width="88.6" height="1.3"/>
		</g>
		<path class="st7" d="M2317.1,773.1c-8.7,0.8-17.2,4.1-27.7,4.8c-17.2,1.1-32.4-6-39.5-22.4c-7.2-16.7-2.2-37.2,12.5-48.1
			c11.4-8.5,27.5-10.1,40.3-4.1c15.3,7.1,19.4-5.4,33.7-7.4c9.4-1.3,17.8,3.1,25.4,8.2c11.2,7.5,22.3,1.6,33.8,6.9
			c11.9,5.4,19,18,24.3,29.3c17.7,37.7,34.8,104.5-8.6,131.8c-14.3,9-31.9,5.4-37.3-11.7c-6.5-20.5,5.2-42.2,2.1-63.2
			c-1-6.5-5.1-24.6-15.3-16.3c-3.2,2.6-5.1,9.2-9,8.8c-2.1-0.2-10.2-9.5-12.8-11.2C2330.9,773.5,2323.9,772.5,2317.1,773.1z"/>
		<path class="st3" d="M2382.2,1594.5c-0.3-2.3-0.6-4.6-1-6.7h-40.4c-0.7,2-1.9,4.2-3.7,6.7H2382.2z"/>
		
			<rect x="2308.9" y="1145.3" transform="matrix(0.7116 -0.7026 0.7026 0.7116 -156.8771 1961.7523)" class="st13" width="4.4" height="53.4"/>
	</g>
</g>
<g>
	<ellipse class="st14" cx="208.8" cy="1471.1" rx="181.3" ry="13.5"/>
	<g>
		<g>
			<path class="st15" d="M175,1328.2c0,0-37.4-42.3-19.2-62.2c18.2-20,41.7-2.3,46.1-11.7c4.3-9.4,1-32.9-10.1-54
				c-11-21.1-16.3-59.3-0.5-68.1s23,12.3,29.7,3.5c6.7-8.8-14.4-37,0-62.2c14.4-25.2,33.1-7,34.5,0c1.4,7,3.4,30.5,0,45.8
				c-3.4,15.3-1.9,19.4,6.2,14.7c8.2-4.7,31.7-5.9,32.1,21.7c0.5,27.6-37.9,72.2-27.3,88c10.6,15.8,35-11.2,47.5,11.7
				c12.5,22.9-2.4,68.1-13.4,72.8C289.6,1332.9,175,1328.2,175,1328.2z"/>
			<g>
				<rect x="236.1" y="1089.7" class="st16" width="1" height="240.3"/>
			</g>
			<g>
				<polygon class="st16" points="236.6,1206 198.3,1151.3 199.1,1150.7 236.6,1204.3 274.5,1150.7 275.3,1151.3 				"/>
			</g>
			<g>
				<polygon class="st16" points="236.6,1309.5 185.4,1278.1 185.9,1277.3 236.5,1308.3 284.7,1269.1 285.3,1269.8 				"/>
			</g>
		</g>
		<path class="st17" d="M285.3,1471.1h-95.9c-3.1,0-5.8-1.8-7-4.6L130.9,1346c-2.2-5,1.5-10.6,7-10.6h198.9c5.5,0,9.2,5.6,7,10.6
			l-51.5,120.5C291.1,1469.3,288.4,1471.1,285.3,1471.1z"/>
		<path class="st18" d="M346.2,1344.7H128.5c-4.5,0-8.1-3.6-8.1-8.1v-2.5c0-4.5,3.6-8.1,8.1-8.1h217.7c4.5,0,8.1,3.6,8.1,8.1v2.5
			C354.3,1341.1,350.7,1344.7,346.2,1344.7z"/>
	</g>
</g>
<g>
	<g>
		<g>
			<rect x="1820.3" y="1121.1" class="st19" width="347" height="2.7"/>
		</g>
		<g>
			<polygon class="st20" points="1840.1,1139.2 1818.2,1122.5 1839.1,1105.7 1840.3,1107.9 1822.3,1122.4 1841.3,1137 			"/>
		</g>
		<g>
			<polygon class="st20" points="2148.6,1139.2 2147.4,1137 2165.4,1122.5 2146.4,1107.9 2147.6,1105.6 2169.4,1122.4 			"/>
		</g>
	</g>
</g>
<g>
	<g>
		<g>
			<rect x="2492.8" y="1117.1" class="st20" width="330" height="2.7"/>
		</g>
		<g>
			<polygon class="st20" points="2511.6,1135.2 2490.9,1118.4 2510.7,1101.6 2511.8,1103.9 2494.7,1118.4 2512.7,1133 			"/>
		</g>
		<g>
			<polygon class="st20" points="2805,1135.2 2803.9,1133 2821,1118.4 2803,1103.9 2804.1,1101.6 2824.9,1118.4 			"/>
		</g>
	</g>
</g>
</svg>
