<?xml version="1.0" encoding="utf-8"?>
<!-- Generator: Adobe Illustrator 23.0.5, SVG Export Plug-In . SVG Version: 6.00 Build 0)  -->
<svg version="1.1" xmlns="http://www.w3.org/2000/svg" xmlns:xlink="http://www.w3.org/1999/xlink" x="0px" y="0px"
	 viewBox="0 0 705.7 789.2" style="enable-background:new 0 0 705.7 789.2;" xml:space="preserve">
<style type="text/css">
	.st0{opacity:0.27;fill:#4A70D6;}
	.st1{fill:#DBEFFF;}
	.st2{fill:#FFFFFF;}
	.st3{fill:#2C4482;}
	.st4{fill:#45446C;}
	.st5{fill:#97CBFF;}
	.st6{fill:#5366C4;}
	.st7{fill:#4A70D6;}
	.st8{fill:none;stroke:#FFC2B0;stroke-width:12;stroke-linecap:round;stroke-linejoin:round;stroke-miterlimit:10;}
	.st9{fill:#FFC2B0;}
	.st10{fill:#D0E7F4;}
	.st11{fill:#3957A6;}
	.st12{fill:#FF579C;}
	.st13{fill:#4264BF;}
	.st14{fill:#EA8A6C;}
	.st15{fill:#FF5C97;}
	.st16{fill:#BC4073;}
	.st17{fill:#992F5A;}
	.st18{fill:#62416D;}
	.st19{fill:#B0DAFF;}
	.st20{fill:#88BDEB;}
	.st21{fill:none;stroke:#9EA7AF;stroke-width:5.7147;stroke-miterlimit:10;}
	.st22{fill:#BC4074;}
	.st23{fill:#283D75;}
	.st24{fill:#ADD5F7;}
	.st25{fill:#E05185;}
	.st26{fill:#D63670;}
	.st27{fill:#5B5B84;}
	.st28{fill:#C9457B;}
	.st29{fill:none;stroke:#FFFFFF;stroke-width:12;stroke-linecap:round;stroke-linejoin:round;stroke-miterlimit:10;}
</style>
<g id="background">
</g>
<g id="image">
	<path class="st0" d="M520.7,441.1l-138.9,77.2l198.1,114.4l120.5-69.6c7-4,7-14.2,0-18.2L520.7,441.1z"/>
	<path class="st1" d="M584.3,630.3l-205.8-128c-12.4-7.2-22.5-26.5-22.5-43L356,25c0-16.6,10.1-24.2,22.5-17l207.7,119.9
		c12.4,7.2,22.5,26.5,22.5,43l0,434.2c0,10.9-3.4,12.9-10.3,16.9L584.3,630.3z"/>
	<path class="st2" d="M453.3,210.7c0,0-98.1,263.8-98.1,247.2l-8.7-443.4L363.9,5c3.8-1.8,8.7-1.4,13.9,1.6l207.7,119.9
		c6.1,3.5,11.6,9.9,15.6,17.5L453.3,210.7z"/>
	<path class="st3" d="M566.9,630.6L359.7,510.7c-12.4-7.2-22-26.5-22-43V33.4c0-16.6,9.8-24.2,22.3-17L567,136.3
		c12.4,7.2,21.9,26.5,21.9,43v434.2C588.9,630.2,579.3,637.8,566.9,630.6z"/>
	<path class="st4" d="M594.9,212.7v24.8c0,1.7,1,2.5,2.3,1.8l-0.3-0.2c1.3-0.7,1.7-2.8,1.7-4.5v-24.8c0-1.7-0.4-2.5-1.7-1.8l0,0.2
		C595.6,209,594.9,211,594.9,212.7z"/>
	<path class="st4" d="M594.9,256.1v24.8c0,1.7,1,2.5,2.3,1.8l-0.3-0.2c1.3-0.7,1.7-2.8,1.7-4.5v-24.8c0-1.7-0.4-2.5-1.7-1.8l0,0.2
		C595.6,252.4,594.9,254.4,594.9,256.1z"/>
	<path class="st5" d="M561.2,556.4l-202-116.6c-2.1-1.2-3.4-3.5-3.4-5.9V67.2c0-5.2,5.7-8.5,10.2-5.9l202,116.6
		c2.1,1.2,3.4,3.5,3.4,5.9v366.7C571.3,555.8,565.7,559,561.2,556.4z"/>
	<path class="st6" d="M499.7,123l-64.1-37c-2.2-1.3-4.1-4.8-4.1-7.8l0,0c0-3,1.8-4.4,4.1-3.1l64.1,37c2.2,1.3,4.1,4.8,4.1,7.8l0,0
		C503.7,122.9,501.9,124.3,499.7,123z"/>
	<polygon class="st3" points="210,131.5 187.8,123.3 78.8,254.4 106,264.3 	"/>
	<path class="st3" d="M183.6,211l-71.4,41c-28.1,16.1-60.2-6.3-57.9-40.3l0.2-3.4c1.1-15.8,9.8-30.1,22.8-37.6l78.2-44.9
		c27.2-15.6,58.3,6.1,56,39v0C210.3,184.2,199.6,201.8,183.6,211z"/>
	<path class="st7" d="M205.5,219.1l-71.4,41c-28.1,16.1-60.2-6.3-57.9-40.3l0.2-3.4c1.1-15.8,9.8-30.1,22.8-37.6l78.2-44.9
		c27.2-15.6,58.3,6.1,56,39v0C232.2,192.3,221.5,209.9,205.5,219.1z"/>
	<path class="st0" d="M297.6,705.7l-19.3-11.1c-0.4-0.4-0.9-0.7-1.4-1l-25.6-14.8c-4.1-2.4-10.8-2.4-14.9,0l-117.7,68.4
		c-4.1,2.4-4,6.2,0.1,8.6l19.3,11.1c0.4,0.4,0.9,0.7,1.4,1l25.6,14.8c4.1,2.4,10.8,2.4,14.9,0l117.7-68.4
		C301.7,712,301.7,708.1,297.6,705.7z"/>
	<path class="st8" d="M272.6,444.8c0,0,44.1-9.2,55.5-65.1"/>
	
		<ellipse transform="matrix(1.774330e-02 -0.9998 0.9998 1.774330e-02 -255.9737 1019.8235)" class="st0" cx="391.1" cy="640.2" rx="31.9" ry="64.3"/>
	<path class="st9" d="M353.9,410.2c1.2,0.6,2.4,1.2,3.8,1.4c3.1,0.4,6.5-1.5,9.6-3.3c0.3-0.2,0.6-0.3,0.8-0.6c0.4-0.6,0.4-1.4,0.2-2
		c-1.1-3.8-2.9-3.7-5.6-5.9c-1.2-1-2.2-2.2-3.4-3.2c-1.8-1.6-3.9-2.8-6-3.9l0,0c-2.5-1.4-11.8-6.3-13.7,0.7c-0.8,3-0.6,5,0.9,6.9
		c1.8,2.4,2.8,3.5,5.1,5.1C348.1,407.2,351,408.7,353.9,410.2z"/>
	<path class="st9" d="M367.1,403.5c-1-2.6-1.3-4-2.7-6.2c-1.1-1.7-2.7-3-4.6-3.8c-3.7-1.5-9.8-3.6-11.8-2.1
		c-2.6,1.8,0.1,4.9,1.7,6.7c3.2,3.7,8.7,6.4,13.2,8c0.8,0.3,1.4,0.1,1.8-0.3c0.2,0.4-1.4-0.7-1.3-0.3
		C364.3,408,368.1,406,367.1,403.5z"/>
	<polygon class="st10" points="362.2,401.9 367,406.1 359.5,416.6 354.1,412 	"/>
	<path class="st3" d="M336.1,635.5l19.6-14.9l11.4-1.9c3.8,14.9,2.1,13.1-2.3,16.9l-17.1,10.6c-9,4.3-11.8,4.8-17.1,2.5l0,0
		C327.5,645.3,330.5,641,336.1,635.5z"/>
	<path class="st3" d="M429,625.2l2.6-24.5l6.4-9.6c13.4,7.5,10.9,7.5,10.7,13.3l-4,19.7c-3.1,9.5-4.6,11.9-9.9,14.1l0,0
		C430.3,638.1,429.1,632.9,429,625.2z"/>
	<g>
		<path class="st11" d="M349.1,356.5c-6.5,18.9-14.1,36.9-23.9,53.7c-4.7,8.1-20.3-3.5-15.6-11.5c9.2-15.8,16.3-32.4,22.4-50.1
			C334.9,339.7,352.2,347.5,349.1,356.5L349.1,356.5z"/>
	</g>
	<g>
		<path class="st9" d="M358,466.6c-0.7,51.6,2,102.1,10.6,153c2,11.9-16.2,17-18.2,5c-8.9-52.5-12-104.7-11.3-158
			C339.2,454.4,358.1,454.4,358,466.6L358,466.6z"/>
	</g>
	<g>
		<path class="st9" d="M396.2,481.6c3.4,22.6,2.5,45.9,6.8,68.3c4.3,22.2,19.8,33.2,39.5,42.2c11,5.1,1.4,21.4-9.5,16.3
			c-21.2-9.7-39.8-23.5-46.6-46.7c-7-24-4.7-50.5-8.4-75.1C376.2,474.7,394.4,469.6,396.2,481.6L396.2,481.6z"/>
	</g>
	<path class="st12" d="M401.1,472.6c-1.9,26.6-18.9,29.3-36.1,19.4c-17.2-9.9-26.7-32.5-26.7-52.3c0,0,9.5-29.4,26.7-19.5
		C382.2,430.1,403.4,441.7,401.1,472.6z"/>
	<path class="st13" d="M342.7,364.1l-4.8,7.8c0,0,0.5,62.5,1.1,67.4c0,0,7.3,15.6,49.5-0.5l17.7-52L342.7,364.1z"/>
	<path class="st13" d="M406.2,395.1c1.6-1,7.1,0.5,7.1,0.5c1.1-9.3,10.3-11.9-2.9-26.9c-2-2.3-33-17.3-49.6-20.3
		c-8-1.5-24.2-7.8-27.4-0.3c-1.9,4.4,4.5,23.9,4.5,23.9c-0.8,17,6.8-5.3,8,4.1c0-0.2-0.1-0.5-0.1-0.7c0,0,2,15.9,3.6,28.2
		c1,7.7,1.6,13.2,1.7,14c0,0,0,0.1,0,0.1l28.8,22.7l15.2-27.3l0,0L406.2,395.1z"/>
	<path class="st9" d="M363.5,348.1c0,0-14.4,14.8-1.9,25.4c12.5,10.5,33.7-13,33.7-13C384.1,353.5,373.4,348.8,363.5,348.1z"/>
	<path class="st12" d="M338.4,439.6l-10.2,88.4c-0.1,1.2,0.2,2.4,0.9,3.4c3.9,6.6,23.7,23.7,67,14.1c5-1.1,10.2-1.5,10.2-5.6
		l-5-75.3l-27.4,4.6L338.4,439.6z"/>
	<path class="st9" d="M370,356.7l-6.8-26.5l16.6,5.3l5.6,21.6C386.5,360.6,375,370.2,370,356.7z"/>
	<path class="st9" d="M363.7,349l-5.1-0.8c-7.9-1.2-13.3-8.6-12.1-16.5l3.9-26c1.2-7.9,8.6-13.3,16.5-12.1l5.1,0.8
		c7.9,1.2,13.3,8.6,12.1,16.5l-3.9,26C378.9,344.7,371.5,350.1,363.7,349z"/>
	<path class="st14" d="M365.5,349.4c2.2,0.5,7.8-0.1,10.2-1.2c0,0-4.7,5-9.8,5.5L365.5,349.4z"/>
	<path class="st15" d="M367.2,301.9c0,0,7.3,20.1,14.2,25.6l-1.4,4.1c-1.4,4.1-0.8,8.6,1.5,12.2l1,1.5c0,0,35.5-27.1,7.1-50.4
		c-19.3-15.7-44.6-2.4-41.7,17L367.2,301.9z"/>
	<path class="st9" d="M382.9,337.9c-2.6,1.5-5.1,0.3-5.5-2.5c-0.4-2.9,1.3-6.4,4-7.9s5.1-0.3,5.5,2.5
		C387.3,332.9,385.5,336.4,382.9,337.9z"/>
	<path class="st15" d="M388.9,297.9c0,0,14.7-13.1,30,5.3c15.3,18.4,28.1-3.4,33.3,6c5.2,9.4,8.3,43.2-16.7,39.9
		c-25-3.3-35.5-8.4-36.1-22.9c-0.5-14.5-16.9-12.1-16.9-12.1L388.9,297.9z"/>
	<g>
		<g>
			<g>
				<polygon class="st6" points="119.6,729.3 120.6,722.1 236.4,652.4 236.2,635 242.1,638.7 242.4,655.6 240.9,656.5 				"/>
			</g>
			
				<ellipse transform="matrix(0.4828 -0.8758 0.8758 0.4828 -584.0147 491.7765)" class="st6" cx="124.3" cy="740.3" rx="15.5" ry="10.1"/>
			<path class="st6" d="M125.7,743.8l-0.6,0.3c-2.1,1.3-4.6,1.3-4.6-1l-2-15.9c0-2.3,1.6-5.2,3.7-6.4l6.1-3.6
				c2.1-1.3,3.8-0.4,3.9,1.9l-2.3,18.6C129.9,739.9,127.8,742.5,125.7,743.8z"/>
		</g>
		<polygon class="st6" points="120.7,688.5 171.5,721.7 301.4,649.4 229.7,611.3 		"/>
		<polygon class="st6" points="260.9,461.3 241,617.4 233.4,616.1 253.5,464.1 		"/>
		<g>
			<g>
				<g>
					<polygon class="st6" points="122.5,640.9 120.7,638.3 249.7,534.2 250.4,539.3 					"/>
				</g>
				<g>
					<polygon class="st6" points="124.7,655.6 123,652.8 243.9,568.7 244.5,574.9 					"/>
				</g>
				<g>
					<polygon class="st6" points="125.7,672.6 124.1,669.8 252.8,584.1 254.4,586.9 					"/>
				</g>
				<g>
					<polygon class="st6" points="214.7,633.8 211.4,633.6 229.3,531.1 232.6,531.3 					"/>
				</g>
				<g>
					<polygon class="st6" points="194.6,644.2 191.2,644 209,547 212.3,547.2 					"/>
				</g>
				<g>
					<polygon class="st6" points="181.6,649.5 178.3,649.6 187.3,566.7 190.7,566.7 					"/>
				</g>
				<g>
					<polygon class="st6" points="163.8,662.3 160.5,662.3 168.1,583.3 171.5,583.2 					"/>
				</g>
				<g>
					<polygon class="st6" points="146.8,673.2 143.4,673.3 149.4,599.7 152.7,599.6 					"/>
				</g>
				<g>
					<polygon class="st6" points="128.7,682.6 128.5,617 131.9,616.6 132,682.2 					"/>
				</g>
				<g>
					<g>
						<g>
							<path class="st6" d="M119.4,690.6l-3.7-64.9l139-118l-14.3,114L119.4,690.6z M122.4,628.1l2.9,51.9l120.3-70l4.1-89.1
								L122.4,628.1z"/>
						</g>
					</g>
				</g>
			</g>
		</g>
		<g>
			<g>
				<g>
					<path class="st2" d="M235.2,570.5c-0.6-5.7-1.4-11.4-1.3-17.1c0-3.9-0.4-9,4.9-9.6c2.9-0.3,7.8,2.7,9.9,4.3
						c4.9,3.6,7.7,9.1,9.8,14.7c2.2,6.1,4.9,13,3.9,19.5c-0.2,1.6,2.2,2.3,2.5,0.7c1.2-8-1.9-16.4-5-23.6c-2.8-6.8-7.1-12.7-14-15.8
						c-4.1-1.9-11.3-4.8-13.6,0.8c-1.4,3.4-1.1,8.1-1,11.7c0.1,4.9,0.7,9.7,1.3,14.5C232.8,572.1,235.4,572.1,235.2,570.5
						L235.2,570.5z"/>
				</g>
			</g>
			<polygon class="st15" points="196.1,632.7 260.5,669.8 268,592.9 205.4,559.1 			"/>
			<polygon class="st16" points="260.5,669.9 280.5,647.4 275.5,586.5 268,592.9 			"/>
			<polygon class="st17" points="205.4,559.2 221.2,557 221.2,567.7 			"/>
			<polygon class="st16" points="280.5,582.2 221.2,557 220.6,567.4 268,592.9 			"/>
			<polygon class="st15" points="280.5,647.4 298.8,647.6 288.5,583.1 275.5,586.5 			"/>
			<polygon class="st16" points="288.5,583.1 224.8,547.6 221.2,557 265.9,589 			"/>
			<polygon class="st16" points="260.5,669.9 298.8,647.6 280.5,647.4 			"/>
			<path class="st16" d="M222.7,581.6c0,1.3-0.9,1.9-2.1,1.2c-1.1-0.7-2.1-2.3-2.1-3.6c0-1.3,0.9-1.9,2.1-1.2
				C221.8,578.7,222.7,580.3,222.7,581.6z"/>
			<path class="st16" d="M249.1,595.1c0,1.3-0.9,1.9-2.1,1.2s-2.1-2.3-2.1-3.6c0-1.3,0.9-1.9,2.1-1.2S249.1,593.7,249.1,595.1z"/>
			<polygon class="st2" points="221.2,557 205.4,559.2 268,592.9 275.5,586.5 274.4,585.9 267.6,591.2 207.8,559.6 221.6,557.7 			
				"/>
			<path class="st2" d="M221.2,557c0.2-0.5,3.6-9.3,3.6-9.3l63.7,35.4l-13,3.4l-1.1-0.6l11.8-3.1l-61-33.9l-3.6,8.9L221.2,557z"/>
			<path class="st16" d="M252.2,602.9l-0.3,7.1c0,0.2,0,0.4,0.2,0.6l8,11.8c0.5,0.7,1.4,0.8,2,0.4l6.7-4.6c0.5-0.3,0.6-1,0.3-1.5
				l-8-12.1c-0.1-0.2-0.3-0.4-0.6-0.4l-6.8-2.1C253,601.7,252.3,602.2,252.2,602.9z"/>
			<circle class="st18" cx="254.6" cy="604.7" r="1.2"/>
			<g>
				<g>
					<path class="st18" d="M247.5,594.3c1.6,3.8,3.8,7.1,6.6,10.1c0.3,0.3,0.8-0.2,0.5-0.5c-2.8-2.9-5-6.3-6.5-10
						C247.9,593.6,247.3,593.9,247.5,594.3L247.5,594.3z"/>
				</g>
			</g>
			<g>
				<g>
					<path class="st2" d="M223,579.7c1.2-6.7,2.4-13.4,4.1-20c0.8-3.2,1.7-6.4,3-9.5c3.1-7.4,10.3-3.9,14.1,0.6
						c4.6,5.5,4.8,13.6,4.8,20.4c0,7.7,0,15.6-2.9,22.9c-0.6,1.5,1.9,2.2,2.5,0.7c3.6-9,3.5-19.7,2.9-29.3
						c-0.5-7.5-2.3-15.3-8.9-19.6c-6.1-4-11.6-4.2-14.6,3c-4,9.5-5.6,20.1-7.4,30.2C220.2,580.7,222.7,581.4,223,579.7L223,579.7z"
						/>
				</g>
			</g>
		</g>
		<g>
			<g>
				<g>
					<path class="st2" d="M199.7,612.5c0.9-8,2.9-17.8,0.5-25.6c-2-6.3-9.5-3.4-13.8-1.4c-6.6,3-10.9,8.6-13.7,15.1
						c-3.2,7.4-6.5,16.2-5.2,24.3c0.2,1.6,2.7,0.9,2.5-0.7c-1-6.3,1.5-12.9,3.6-18.8c2.1-5.8,4.9-11.7,10-15.4
						c2.4-1.7,6.1-4,9.2-4.1c2.9-0.1,5.1,1.7,5.4,4.5c0.2,1.4,0.2,2.7,0.2,4.1c0.1,6-0.6,12-1.3,17.9
						C197,614.1,199.6,614.1,199.7,612.5L199.7,612.5z"/>
				</g>
			</g>
			<polygon class="st19" points="236.3,674.7 171.8,711.8 164.3,634.9 226.9,601.1 			"/>
			<polygon class="st1" points="171.8,711.9 151.8,689.4 156.8,628.5 164.3,634.9 			"/>
			<polygon class="st6" points="226.9,601.1 211.2,599 211.2,609.6 			"/>
			<polygon class="st20" points="151.8,624.2 211.2,599 211.7,609.4 164.3,634.9 			"/>
			<polygon class="st2" points="151.8,689.4 133.6,689.6 143.8,625 156.8,628.5 			"/>
			<polygon class="st20" points="143.9,625.1 207.5,589.6 211.2,599 166.4,631 			"/>
			<polygon class="st19" points="171.8,711.9 133.6,689.6 151.8,689.4 			"/>
			<path class="st6" d="M209.6,623.6c0,1.3,0.9,1.9,2.1,1.2c1.1-0.7,2.1-2.3,2.1-3.6c0-1.3-0.9-1.9-2.1-1.2
				C210.5,620.7,209.6,622.3,209.6,623.6z"/>
			<path class="st6" d="M183.2,637c0,1.3,0.9,1.9,2.1,1.2c1.1-0.7,2.1-2.3,2.1-3.6c0-1.3-0.9-1.9-2.1-1.2
				C184.1,634.1,183.2,635.7,183.2,637z"/>
			<polygon class="st2" points="211.2,599 226.9,601.1 164.3,634.9 156.8,628.5 157.9,627.9 164.7,633.2 224.6,601.6 210.8,599.7 
							"/>
			<path class="st2" d="M211.2,599c-0.2-0.5-3.6-9.3-3.6-9.3l-63.7,35.4l13,3.4l1.1-0.6l-11.8-3.1l61-33.9l3.6,8.9L211.2,599z"/>
			<g>
				<g>
					<path class="st2" d="M211.8,621c-1.8-9.9-3.3-20.1-7.1-29.4c-3.1-7.6-8.4-8-14.9-3.7c-6.4,4.2-8.3,11.6-8.8,18.8
						c-0.8,9.7-0.9,20.9,2.8,30.1c0.6,1.5,3.1,0.9,2.5-0.7c-2.8-7-2.9-14.6-2.9-22c0-7.1,0-15.6,4.8-21.2c3.4-4,9.9-7.7,13.6-1.8
						c1.7,2.8,2.5,6.8,3.4,9.9c1.8,6.8,3.1,13.8,4.3,20.8C209.6,623.4,212.1,622.7,211.8,621L211.8,621z"/>
				</g>
			</g>
		</g>
		<g>
			<polygon class="st6" points="309.8,541.4 248.7,509.2 251.7,504.1 312.8,536.3 			"/>
		</g>
		<g>
			<polygon class="st6" points="305.4,571.9 244.3,539.7 247.2,534.5 308.3,566.8 			"/>
		</g>
		<path class="st21" d="M296.4,647.6"/>
		<path class="st21" d="M237.3,616.8"/>
		<path class="st22" d="M296.3,440.5c-0.2-3.9-4.5-6.1-7.8-4.1l-30.2,18.9c-2.4,1.5-4.4,4.8-4.6,7.8l-0.6,7.5l40.8-25.5
			C295.5,444.1,296.4,442.4,296.3,440.5L296.3,440.5z"/>
		<g>
			<polygon class="st2" points="180,760 176.9,755 291.4,686.3 295.2,651.4 301.7,646.7 297,689.7 			"/>
		</g>
		<g>
			<polygon class="st2" points="318.9,502.1 302.1,640.3 294.6,646.4 311.5,504.9 			"/>
		</g>
		
			<ellipse transform="matrix(0.4828 -0.8758 0.8758 0.4828 -586.0586 557.2933)" class="st23" cx="178.8" cy="774.8" rx="15.5" ry="10.1"/>
		<path class="st2" d="M180.2,778.3l-0.6,0.3c-2.1,1.3-4.6,1.3-4.6-1l-2-15.9c0-2.3,1.6-5.2,3.7-6.4l6.1-3.6
			c2.1-1.3,3.8-0.4,3.9,1.9l-2.3,18.6C184.3,774.4,182.3,777,180.2,778.3z"/>
		
			<ellipse transform="matrix(0.4828 -0.8758 0.8758 0.4828 -467.734 620.2356)" class="st23" cx="291.2" cy="706.1" rx="15.5" ry="10.1"/>
		<path class="st2" d="M292.6,709.6l-0.6,0.3c-2.1,1.3-4.6,1.3-4.6-1l-2-15.9c0-2.3,1.6-5.2,3.7-6.4l6.1-3.6
			c2.1-1.3,3.8-0.4,3.9,1.9l-2.3,18.6C296.8,705.7,294.7,708.3,292.6,709.6z"/>
		<g>
			<g>
				<g>
					<path class="st1" d="M170.1,660.5l-55.2-35l3.7,64.5l55.2,35L170.1,660.5z M120.8,635.4l44.2,28l3,51.7l-44.2-28L120.8,635.4z"
						/>
				</g>
				<g>
					<polygon class="st1" points="167.4,683.6 117.4,649.9 119.3,647 169.4,680.7 					"/>
				</g>
				<g>
					<polygon class="st1" points="168.6,704.2 118.5,670.5 120.5,667.6 170.6,701.3 					"/>
				</g>
				<g>
					<polygon class="st1" points="129.5,696.3 127.6,640.9 130.9,640.5 132.8,695.9 					"/>
				</g>
				<g>
					<polygon class="st1" points="143.6,703.8 141.7,648.5 145,648 146.9,703.4 					"/>
				</g>
				<g>
					<polygon class="st1" points="157.1,713.8 155.1,655.4 158.5,658 160.4,713.3 					"/>
				</g>
			</g>
		</g>
		<g>
			<g>
				<g>
					<g>
						<path class="st2" d="M173.8,724.9l-3.7-64.5l144.3-119.1l-13.3,110.5L173.8,724.9z M176.6,663.1l3.2,51.2l114.8-65.9
							l10.7-91.8L176.6,663.1z"/>
					</g>
				</g>
			</g>
			<g>
				<g>
					<polygon class="st2" points="281.8,662.4 278.4,662.2 287.5,565.4 290.9,565.6 					"/>
				</g>
			</g>
			<g>
				<g>
					<polygon class="st2" points="265.6,670.4 262.1,670.2 266.8,581.4 270.3,581.6 					"/>
				</g>
			</g>
			<g>
				<g>
					<polygon class="st2" points="248.5,678.8 245.1,678.9 246.5,600.3 249.9,600.2 					"/>
				</g>
			</g>
			<g>
				<g>
					<polygon class="st2" points="226.4,693.6 223,694 224.4,617.6 227.8,617.2 					"/>
				</g>
			</g>
			<g>
				<g>
					<polygon class="st2" points="206.6,704.2 203.1,704.3 203.2,634.3 206.7,634.1 					"/>
				</g>
			</g>
			<g>
				<g>
					<polygon class="st2" points="185.4,716.2 184.9,651.4 188.4,650.9 188.8,715.7 					"/>
				</g>
			</g>
			<g>
				<g>
					<polygon class="st2" points="174.2,676.7 172.5,674 306.7,578.6 308.3,581.4 					"/>
				</g>
			</g>
			<g>
				<g>
					<polygon class="st2" points="175.7,691.4 174.2,688.5 303.2,610.3 302.8,615 					"/>
				</g>
			</g>
			<g>
				<g>
					<polygon class="st2" points="176,708.3 174.5,705.4 301.7,630.1 301,635.7 					"/>
				</g>
			</g>
		</g>
		<path class="st22" d="M353.6,482.7c-0.2-3.9-4.5-6.1-7.8-4.1l-30.2,18.9c-2.4,1.5-4.4,4.8-4.6,7.8l-0.6,7.5l40.8-25.5
			C352.8,486.3,353.7,484.5,353.6,482.7L353.6,482.7z"/>
	</g>
	<path class="st8" d="M339.6,489c0,0,55-11.7,61.3-68.4"/>
	<g>
		<g>
			<path class="st7" d="M417.2,375.8c3.4,22.7-2.6,44.1-9.5,64.9c-3.1,9.4-21.2,3.8-18.1-5.6c6.6-19.7,12.1-39.4,9-60.8
				C397.1,364.2,415.7,365.8,417.2,375.8L417.2,375.8z"/>
		</g>
	</g>
	<path class="st9" d="M275.4,450.8l-6.3,4c-3,1.9-7.1,1-9-2.1l0,0c-1.9-3-1-7.1,2.1-9l6.3-4c3-1.9,7.1-1,9,2.1l0,0
		C279.4,444.8,278.4,448.9,275.4,450.8z"/>
	<path class="st9" d="M344.2,492l-6.8,4.3c-2.8,1.8-6.6,0.9-8.4-1.9v0c-1.8-2.8-0.9-6.6,1.9-8.4l6.8-4.3c2.8-1.8,6.6-0.9,8.4,1.9
		l0,0C347.9,486.5,347.1,490.3,344.2,492z"/>
	<g>
		<polygon class="st7" points="15,533 26.9,539.2 30.3,532.5 27.7,518.5 		"/>
		<polygon class="st7" points="228.5,267.6 217.7,261.9 201.7,272.1 217,279.8 		"/>
		<path class="st7" d="M211.9,262.5L21.1,372.6c-5.2,3-9.4,11.1-9.4,18v134.8c0,6.9,4.2,10.1,9.4,7.1l190.8-110.1
			c5.2-3,9.4-11.1,9.4-18V269.6C221.3,262.7,217,259.5,211.9,262.5z"/>
		<g>
			<path class="st2" d="M223.8,428.6L33,538.7c-5.2,3-9.4-0.2-9.4-7.1V396.8c0-6.9,4.2-15,9.4-18l190.8-110.1c5.2-3,9.4,0.2,9.4,7.1
				v134.8C233.2,417.5,229,425.6,223.8,428.6z"/>
			<path class="st7" d="M73.6,465.4l-28.2,16.3c-2.5,1.4-4.5-0.1-4.5-3.4l0,0c0-3.3,2-7.2,4.5-8.6l28.2-16.3
				c2.5-1.4,4.5,0.1,4.5,3.4l0,0C78,460.1,76,464,73.6,465.4z"/>
			<path class="st7" d="M121.3,437.8l-28.2,16.3c-2.5,1.4-4.5-0.1-4.5-3.4l0,0c0-3.3,2-7.2,4.5-8.6l28.2-16.3
				c2.5-1.4,4.5,0.1,4.5,3.4l0,0C125.8,432.6,123.8,436.4,121.3,437.8z"/>
			<path class="st7" d="M169,410.3l-28.2,16.3c-2.5,1.4-4.5-0.1-4.5-3.4l0,0c0-3.3,2-7.2,4.5-8.6l28.2-16.3c2.5-1.4,4.5,0.1,4.5,3.4
				l0,0C173.5,405,171.5,408.9,169,410.3z"/>
			<path class="st7" d="M179.9,424.8L146,444.4c-1.6,0.9-3-0.1-3-2.2l0,0c0-2.2,1.3-4.7,3-5.7l33.9-19.6c1.6-0.9,3,0.1,3,2.2l0,0
				C182.9,421.3,181.5,423.9,179.9,424.8z"/>
			<path class="st7" d="M77,384.1l-32.4,18.7c-2,1.2-3.7-0.1-3.7-2.8l0,0c0-2.7,1.7-5.9,3.7-7.1L77,374.2c2-1.2,3.7,0.1,3.7,2.8l0,0
				C80.7,379.7,79,382.9,77,384.1z"/>
			<path class="st24" d="M74.7,435.5l-27.9,16.1c-3.3,1.9-6-0.1-6-4.5v-6.2c0-4.4,2.7-9.5,6-11.4l27.9-16.1c3.3-1.9,6,0.1,6,4.5v6.2
				C80.7,428.4,78,433.6,74.7,435.5z"/>
			<path class="st7" d="M128.8,467.2l-85,49.1c-1.6,0.9-3-0.1-3-2.2l0,0c0-2.2,1.3-4.7,3-5.7l85-49.1c1.6-0.9,3,0.1,3,2.2l0,0
				C131.8,463.7,130.4,466.3,128.8,467.2z"/>
			<path class="st7" d="M216.8,382.7L188.5,399c-2.5,1.4-4.5-0.1-4.5-3.4l0,0c0-3.3,2-7.2,4.5-8.6l28.2-16.3
				c2.5-1.4,4.5,0.1,4.5,3.4l0,0C221.3,377.4,219.2,381.3,216.8,382.7z"/>
			
				<ellipse transform="matrix(0.5047 -0.8633 0.8633 0.5047 -161.0843 330.7361)" class="st7" cx="207.7" cy="305.7" rx="19.1" ry="11"/>
		</g>
	</g>
	<g>
		<polygon class="st2" points="342.4,187.4 319.3,174 373.8,114.9 399.8,128.8 		"/>
		<polygon class="st15" points="365.6,200.8 342.4,187.4 396.2,129.1 422.1,143.1 		"/>
		<polygon class="st2" points="388.7,214.1 365.6,200.8 418.5,143.3 444.5,157.3 		"/>
		<polygon class="st15" points="411.9,227.5 388.7,214.1 442.2,156.1 469.1,169.2 		"/>
		<polygon class="st2" points="435.1,240.9 411.9,227.5 468.6,166 492.9,183.7 		"/>
		<polygon class="st15" points="458.3,254.3 435.1,240.9 490.2,182.5 517.6,193.8 		"/>
		<polygon class="st2" points="481.8,267.9 458.3,254.3 515.3,193.8 541.5,208.7 		"/>
		<polygon class="st25" points="562,222.5 372.8,118 372.8,84.3 377.7,80.8 562.7,188 		"/>
		<path class="st1" d="M331.7,209.1l-1.6-0.9c-6-3.4-10.8-12.7-10.8-20.6l0-13.5l23.2,13.4l0,13.5
			C342.5,208.9,337.6,212.5,331.7,209.1z"/>
		<path class="st1" d="M378,235.8l-1.6-0.9c-6-3.4-10.8-12.7-10.8-20.6l0-13.5l23.2,13.4l0,13.5C388.8,235.6,383.9,239.3,378,235.8z
			"/>
		<path class="st1" d="M424.3,262.6l-1.6-0.9c-6-3.4-10.8-12.7-10.8-20.6l0-13.5l23.2,13.4l0,13.5
			C435.1,262.4,430.3,266,424.3,262.6z"/>
		<path class="st1" d="M470.7,289l-1.6-0.9c-6-3.4-10.8-12.7-10.8-20.6l0-13.5l23.2,13.4l0,13.5C481.5,288.8,476.6,292.5,470.7,289z
			"/>
		<path class="st25" d="M354.6,222.2l-1.6-0.9c-6-3.4-10.8-12.7-10.8-20.6l0-13.5l23.2,13.4l0,13.5
			C365.4,222,360.6,225.7,354.6,222.2z"/>
		<path class="st25" d="M401.2,249.2l-1.6-0.9c-6-3.4-10.8-12.7-10.8-20.6l0-13.5l23.2,13.4l0,13.5C412,249,407.1,252.6,401.2,249.2
			z"/>
		<path class="st25" d="M447.8,276l-1.6-0.9c-6-3.4-10.8-12.7-10.8-20.6l0-13.5l23.2,13.4l0,13.5C458.6,275.8,453.8,279.4,447.8,276
			z"/>
		<path class="st26" d="M565.2,224.6l-25.7-14l-53.3,56.9l0.3,0.2l0,13.4c0,7.9,4.8,17.2,10.8,20.6l0,2.1c7,1.7,12.4-1.4,12.4-9.4
			l0-11.9L565.2,224.6z"/>
		<polygon class="st15" points="504.8,281.1 481.3,267.6 536.2,208 562,222.5 		"/>
		<path class="st25" d="M494,302.7l-1.6-0.9c-6-3.4-10.8-12.7-10.8-20.6l0-13.5l23.2,13.4l0,13.5C504.8,302.5,499.9,306.2,494,302.7
			z"/>
		<polygon class="st15" points="559.7,192.2 372.8,84.3 377.8,80.9 565.2,189 		"/>
		<polygon class="st26" points="565.2,224.6 560.3,224.2 559.7,192.2 565.2,189 		"/>
	</g>
	<polygon class="st27" points="156.8,162 134.6,153.7 25.5,284.9 52.8,294.8 	"/>
	<path class="st3" d="M130.4,241.5l-71.4,41c-28.1,16.1-60.2-6.3-57.9-40.3l0.2-3.4c1.1-15.8,9.8-30.1,22.8-37.6l78.2-44.9
		c27.2-15.6,58.3,6.1,56,39v0C157.1,214.7,146.4,232.3,130.4,241.5z"/>
	<path class="st3" d="M5.9,262.2l-0.1,53.1c0,4.4,5.1,6.9,8.6,4.1L60.8,282L5.9,262.2z"/>
	<path class="st7" d="M152.3,249.6l-71.4,41c-28.1,16.1-60.2-6.3-57.9-40.3l0.2-3.4c1.1-15.8,9.8-30.1,22.8-37.6l93.5-53.6
		c27.2-15.6,43.1,14.8,40.8,47.8v0C179,222.8,168.3,240.4,152.3,249.6z"/>
	<path class="st2" d="M60.4,235.5l2.2,3.9c0.4,0.6,1.1,0.8,1.9,0.5l5-2.1c2.1-0.8,2.9,1.6,1.4,4.1l-3.6,6.2c-0.6,1-0.9,2.1-0.7,3
		l0.9,5.3c0.4,2.1-1.8,5.2-3.6,5.1l-4.5-0.1c-0.7,0-1.6,0.5-2.3,1.3l-4.5,5.3c-1.8,2.2-4,1.6-3.6-0.9l0.9-6.2c0.1-1-0.1-1.8-0.7-2.1
		l-3.6-2c-1.5-0.8-0.7-4.2,1.4-5.7l5-3.7c0.8-0.6,1.5-1.6,1.9-2.7l2.2-6.5C56.9,235.4,59.5,233.9,60.4,235.5z"/>
	<path class="st2" d="M96.7,215.5l2.2,3.9c0.4,0.6,1.1,0.8,1.9,0.5l5-2.1c2.1-0.8,2.9,1.6,1.4,4.1l-3.6,6.2c-0.6,1-0.9,2.1-0.7,3
		l0.9,5.3c0.4,2.1-1.8,5.2-3.6,5.1l-4.5-0.1c-0.7,0-1.6,0.5-2.3,1.3l-4.5,5.3c-1.8,2.2-4,1.6-3.6-0.9l0.9-6.2c0.1-1-0.1-1.8-0.7-2.1
		l-3.6-2c-1.5-0.8-0.7-4.2,1.4-5.7l5-3.7c0.8-0.6,1.5-1.6,1.9-2.7l2.2-6.5C93.1,215.4,95.8,213.9,96.7,215.5z"/>
	<path class="st2" d="M133,195.5l2.2,3.9c0.4,0.6,1.1,0.8,1.9,0.5l5-2.1c2.1-0.8,2.9,1.6,1.4,4.1l-3.6,6.2c-0.6,1-0.9,2.1-0.7,3
		l0.9,5.3c0.4,2.1-1.8,5.2-3.6,5.1l-4.5-0.1c-0.7,0-1.6,0.5-2.3,1.3l-4.5,5.3c-1.8,2.2-4,1.6-3.6-0.9l0.9-6.2c0.1-1-0.1-1.8-0.7-2.1
		l-3.6-2c-1.5-0.8-0.7-4.2,1.4-5.7l5-3.7c0.8-0.6,1.5-1.6,1.9-2.7l2.2-6.5C129.4,195.4,132.1,193.9,133,195.5z"/>
	<path class="st2" d="M169.3,175.5l2.2,3.9c0.4,0.6,1.1,0.8,1.9,0.5l5-2.1c2.1-0.8,2.9,1.6,1.4,4.1l-3.6,6.2c-0.6,1-0.9,2.1-0.7,3
		l0.9,5.3c0.4,2.1-1.8,5.2-3.6,5.1l-4.5-0.1c-0.7,0-1.6,0.5-2.3,1.3l-4.5,5.3c-1.8,2.2-4,1.6-3.6-0.9l0.9-6.2c0.1-1-0.1-1.8-0.7-2.1
		l-3.6-2c-1.5-0.8-0.7-4.2,1.4-5.7l5-3.7c0.8-0.6,1.5-1.6,1.9-2.7l2.2-6.5C165.7,175.4,168.4,173.9,169.3,175.5z"/>
	<path class="st2" d="M203.9,156.3l2.2,3.9c0.4,0.6,1.1,0.8,1.9,0.5l5-2.1c2.1-0.8,2.9,1.6,1.4,4.1l-3.6,6.2c-0.6,1-0.9,2.1-0.7,3
		l0.9,5.3c0.4,2.1-1.8,5.2-3.6,5.1l-4.5-0.1c-0.7,0-1.6,0.5-2.3,1.3l-4.5,5.3c-1.8,2.2-4,1.6-3.6-0.9l0.9-6.2c0.1-1-0.1-1.8-0.7-2.1
		l-3.6-2c-1.5-0.8-0.7-4.2,1.4-5.7l5-3.7c0.8-0.6,1.5-1.6,1.9-2.7l2.2-6.5C200.3,156.2,203,154.7,203.9,156.3z"/>
	<path class="st0" d="M506.7,706.5c-23.7-14.2-62.4-14.8-86.5-1.4c-24.1,13.4-24.5,35.8-0.8,50c23.7,14.2,62,14.8,86.6,1.7
		C532.9,742.3,530.3,720.7,506.7,706.5z"/>
	<path class="st28" d="M487.1,703.4c-22.5-13.5-59.3-14.1-82.2-1.4c-22.9,12.7-23.3,34-0.8,47.4c22.5,13.5,58.9,14.1,82.2,1.6
		C512,737.4,509.6,716.8,487.1,703.4z"/>
	<path class="st12" d="M486.4,689.4c-22.5-13.5-59.3-14.1-82.2-1.4c-22.9,12.7-23.3,34-0.8,47.4c22.5,13.5,58.9,14.1,82.2,1.6
		C511.2,723.4,508.8,702.9,486.4,689.4z"/>
	<polyline class="st29" points="430.8,698.6 424.1,721.5 478.1,709.3 	"/>
</g>
</svg>
