<?xml version="1.0" encoding="utf-8"?>
<!-- Generator: Adobe Illustrator 23.0.5, SVG Export Plug-In . SVG Version: 6.00 Build 0)  -->
<svg version="1.1" id="Layer_1" xmlns="http://www.w3.org/2000/svg" xmlns:xlink="http://www.w3.org/1999/xlink" x="0px" y="0px"
	 viewBox="0 0 652.7 446.6" style="enable-background:new 0 0 652.7 446.6;" xml:space="preserve">
<style type="text/css">
	.st0{fill:#4CC5AD;}
	.st1{fill:#FFEED2;}
	.st2{fill:#475059;}
	.st3{fill:#BFA027;}
	.st4{fill:#CFAD2D;}
	.st5{fill:#E2BC34;}
	.st6{fill:#FAAB1F;}
	.st7{fill:#FFFAF1;}
	.st8{fill:#97CBFF;}
	.st9{opacity:0.55;fill:#FFFFFF;}
	.st10{fill:#5A84A2;}
	.st11{fill:#FF7192;}
	.st12{fill:#F895AC;}
	.st13{fill:#FDBECE;}
	.st14{opacity:0.3;fill:#FFEED2;}
	.st15{fill:#E2D2BC;}
	.st16{opacity:0.55;}
	.st17{fill:#FFFFFF;}
	.st18{opacity:0.3;fill:#FFFFFF;}
</style>
<g>
	<g>
		
			<ellipse transform="matrix(0.7071 -0.7071 0.7071 0.7071 -68.4825 298.719)" class="st0" cx="326.3" cy="232" rx="214.6" ry="214.6"/>
		<g>
			<path class="st1" d="M447.9,408.3h-10.4H271.9c0,0,0,0,0,0c-7.5,0-13.6-6.1-13.6-13.6c0-3.6,1.4-7.1,4-9.7c2.6-2.6,6-4,9.6-4V381
				h99.6c7,0,12.7-5.7,12.7-12.7c0-7-5.7-12.7-12.7-12.7H33.5C18.3,355.6,6,343.3,6,328.1c0-15.2,12.3-27.5,27.5-27.5h94.3
				c10,0,18.2-8.2,18.2-18.2c0-10-8.1-18.2-18.2-18.2H62.4c-5,0-9-4-9-9s4-9,9-9h140.1v-6H62.4c-8.3,0-15,6.7-15,15s6.7,15,15,15
				h65.5c6.7,0,12.2,5.5,12.2,12.2c0,6.7-5.5,12.2-12.2,12.2H33.5C15,294.6,0,309.6,0,328.1c0,18.5,15,33.5,33.5,33.5h337.9
				c3.7,0,6.7,3,6.7,6.7s-3,6.7-6.7,6.7h-99.6v3.1l0-3c-5.2,0-10.2,2-13.9,5.8c-3.7,3.7-5.7,8.6-5.7,13.9c0,10.8,8.8,19.6,19.6,19.6
				l0,0h0c0,0,0,0,0,0h165.6h10.4h39v-6H447.9z"/>
			<path class="st1" d="M652.6,406.1c0-0.1,0-0.2,0-0.3c0-0.5-0.1-0.9-0.2-1.4c0-0.2-0.1-0.4-0.1-0.6c-0.1-0.4-0.2-0.8-0.3-1.1
				c-0.1-0.2-0.1-0.5-0.2-0.7c-0.1-0.4-0.3-0.8-0.5-1.3c0-0.1-0.1-0.1-0.1-0.2c-7.4-17.8-41.4-31.4-82.7-32.2
				c-41.4,0.7-75.4,14.3-82.7,32.2c0,0.1-0.1,0.1-0.1,0.2c-0.2,0.4-0.3,0.8-0.5,1.3c-0.1,0.2-0.2,0.5-0.2,0.7
				c-0.1,0.4-0.2,0.8-0.3,1.1c0,0.2-0.1,0.4-0.1,0.6c-0.1,0.5-0.2,0.9-0.2,1.4c0,0.1,0,0.2,0,0.3c-0.1,0.6-0.1,1.1-0.1,1.7
				c0,0.5,0,1.1,0.1,1.6c0,0.2,0,0.4,0.1,0.6c0,0.4,0.1,0.7,0.2,1.1c0.1,0.4,0.2,0.8,0.3,1.2c0.1,0.2,0.1,0.4,0.2,0.6
				c0.1,0.3,0.2,0.6,0.3,0.9c0.1,0.3,0.2,0.6,0.3,0.8c0.1,0.2,0.1,0.3,0.2,0.5c2.8,6.6,9.4,11.2,17,11.2h65.8h65.8
				c7.6,0,14.2-4.6,17-11.2c0.1-0.2,0.1-0.3,0.2-0.5c0.1-0.3,0.2-0.6,0.3-0.8c0.1-0.3,0.2-0.6,0.3-0.9c0.1-0.2,0.1-0.4,0.2-0.6
				c0.1-0.4,0.2-0.8,0.3-1.2c0.1-0.3,0.1-0.7,0.2-1.1c0-0.2,0-0.4,0.1-0.6c0-0.5,0.1-1.1,0.1-1.6
				C652.7,407.2,652.7,406.6,652.6,406.1z"/>
			<path class="st2" d="M527.9,379.8c0.9,1.9-5.1,6.6-13.5,10.5c-8.3,3.9-15.8,5.6-16.7,3.8c-0.9-1.9,5.1-6.6,13.5-10.5
				C519.6,379.6,527,377.9,527.9,379.8z"/>
			<g>
				<rect x="196.4" class="st3" width="260.7" height="306.5"/>
				<polygon class="st4" points="210.8,306.5 196.4,296.3 196.4,0 210.8,10.2 				"/>
				<polygon class="st5" points="210.8,306.5 186.5,319.7 186.5,23.4 210.8,10.2 				"/>
				<polygon class="st4" points="442.7,306.5 457.1,296.3 457.1,0 442.7,10.2 				"/>
				<polygon class="st5" points="442.7,306.5 467,319.7 467,23.4 442.7,10.2 				"/>
				<rect x="186.5" y="23.4" class="st6" width="280.5" height="296.3"/>
				<g>
					<path class="st3" d="M383.9,54c0-3.5,2.8-6.3,6.3-6.3c3.5,0,6.3,2.8,6.3,6.3c0,3.5-2.8,6.3-6.3,6.3
						C386.7,60.3,383.9,57.4,383.9,54z"/>
					<path class="st3" d="M256.5,54c0-3.5,2.8-6.3,6.3-6.3c3.5,0,6.3,2.8,6.3,6.3c0,3.5-2.8,6.3-6.3,6.3
						C259.3,60.3,256.5,57.4,256.5,54z"/>
					<path class="st5" d="M326.5,181.3c37.8,0,68.5-30.6,68.5-68.4V58.7c0-2.6-2.1-4.7-4.7-4.7c-2.6,0-4.7,2.1-4.7,4.7v54.2
						c0,32.6-26.4,59.1-59.1,59.1c-32.6,0-59.1-26.4-59.1-59.1V58.7c0-2.6-2.1-4.7-4.7-4.7c-2.6,0-4.7,2.1-4.7,4.7v54.2
						C258.1,150.7,288.7,181.3,326.5,181.3z"/>
					<path class="st7" d="M326.5,177.1c37.8,0,68.5-30.6,68.5-68.4V54.4c0-2.6-2.1-4.7-4.7-4.7c-2.6,0-4.7,2.1-4.7,4.7v54.2
						c0,32.6-26.4,59.1-59.1,59.1c-32.6,0-59.1-26.4-59.1-59.1V54.4c0-2.6-2.1-4.7-4.7-4.7c-2.6,0-4.7,2.1-4.7,4.7v54.2
						C258.1,146.4,288.7,177.1,326.5,177.1z"/>
				</g>
			</g>
		</g>
	</g>
	<g>
		
			<ellipse transform="matrix(0.7071 -0.7071 0.7071 0.7071 -68.4825 298.719)" class="st8" cx="326.3" cy="232" rx="214.6" ry="214.6"/>
		
			<ellipse transform="matrix(0.7071 -0.7071 0.7071 0.7071 -68.3616 299.0107)" class="st9" cx="326.8" cy="232" rx="214.6" ry="214.6"/>
		<g>
			<circle class="st2" cx="508.1" cy="385.6" r="10.4"/>
			<path class="st10" d="M447.9,408.3h-10.4H271.9c0,0,0,0,0,0c-7.5,0-13.6-6.1-13.6-13.6c0-3.6,1.4-7.1,4-9.7c2.6-2.6,6-4,9.6-4
				V381h99.6c7,0,12.7-5.7,12.7-12.7c0-7-5.7-12.7-12.7-12.7H33.5C18.3,355.6,6,343.3,6,328.1c0-15.2,12.3-27.5,27.5-27.5h94.3
				c10,0,18.2-8.2,18.2-18.2c0-10-8.1-18.2-18.2-18.2H62.4c-5,0-9-4-9-9s4-9,9-9h140.1v-6H62.4c-8.3,0-15,6.7-15,15s6.7,15,15,15
				h65.5c6.7,0,12.2,5.5,12.2,12.2c0,6.7-5.5,12.2-12.2,12.2H33.5C15,294.6,0,309.6,0,328.1c0,18.5,15,33.5,33.5,33.5h337.9
				c3.7,0,6.7,3,6.7,6.7s-3,6.7-6.7,6.7h-99.6v3.1l0-3c-5.2,0-10.2,2-13.9,5.8c-3.7,3.7-5.7,8.6-5.7,13.9c0,10.8,8.8,19.6,19.6,19.6
				l0,0h0c0,0,0,0,0,0h165.6h10.4h39v-6H447.9z"/>
			<path class="st10" d="M652.6,406.1c0-0.1,0-0.2,0-0.3c0-0.5-0.1-0.9-0.2-1.4c0-0.2-0.1-0.4-0.1-0.6c-0.1-0.4-0.2-0.8-0.3-1.1
				c-0.1-0.2-0.1-0.5-0.2-0.7c-0.1-0.4-0.3-0.8-0.5-1.3c0-0.1-0.1-0.1-0.1-0.2c-7.4-17.8-41.4-31.4-82.7-32.2
				c-41.4,0.7-75.4,14.3-82.7,32.2c0,0.1-0.1,0.1-0.1,0.2c-0.2,0.4-0.3,0.8-0.5,1.3c-0.1,0.2-0.2,0.5-0.2,0.7
				c-0.1,0.4-0.2,0.8-0.3,1.1c0,0.2-0.1,0.4-0.1,0.6c-0.1,0.5-0.2,0.9-0.2,1.4c0,0.1,0,0.2,0,0.3c-0.1,0.6-0.1,1.1-0.1,1.7
				c0,0.5,0,1.1,0.1,1.6c0,0.2,0,0.4,0.1,0.6c0,0.4,0.1,0.7,0.2,1.1c0.1,0.4,0.2,0.8,0.3,1.2c0.1,0.2,0.1,0.4,0.2,0.6
				c0.1,0.3,0.2,0.6,0.3,0.9c0.1,0.3,0.2,0.6,0.3,0.8c0.1,0.2,0.1,0.3,0.2,0.5c2.8,6.6,9.4,11.2,17,11.2h65.8h65.8
				c7.6,0,14.2-4.6,17-11.2c0.1-0.2,0.1-0.3,0.2-0.5c0.1-0.3,0.2-0.6,0.3-0.8c0.1-0.3,0.2-0.6,0.3-0.9c0.1-0.2,0.1-0.4,0.2-0.6
				c0.1-0.4,0.2-0.8,0.3-1.2c0.1-0.3,0.1-0.7,0.2-1.1c0-0.2,0-0.4,0.1-0.6c0-0.5,0.1-1.1,0.1-1.6
				C652.7,407.2,652.7,406.6,652.6,406.1z"/>
			<g>
				<rect x="196.4" class="st11" width="260.7" height="306.5"/>
				<polygon class="st12" points="210.8,306.5 196.4,296.3 196.4,0 210.8,10.2 				"/>
				<polygon class="st13" points="210.8,306.5 186.5,319.7 186.5,23.4 210.8,10.2 				"/>
				<polygon class="st12" points="442.7,306.5 457.1,296.3 457.1,0 442.7,10.2 				"/>
				<polygon class="st13" points="442.7,306.5 467,319.7 467,23.4 442.7,10.2 				"/>
				<rect x="186.5" y="23.4" class="st11" width="280.5" height="296.3"/>
				<polygon class="st14" points="467,23.4 186.5,23.4 186.5,311.8 467,31.3 				"/>
				<g>
					<path class="st11" d="M383.9,54c0-3.5,2.8-6.3,6.3-6.3c3.5,0,6.3,2.8,6.3,6.3c0,3.5-2.8,6.3-6.3,6.3
						C386.7,60.3,383.9,57.4,383.9,54z"/>
					<path class="st11" d="M256.5,54c0-3.5,2.8-6.3,6.3-6.3c3.5,0,6.3,2.8,6.3,6.3c0,3.5-2.8,6.3-6.3,6.3
						C259.3,60.3,256.5,57.4,256.5,54z"/>
					<path class="st13" d="M326.5,181.3c37.8,0,68.5-30.6,68.5-68.4V58.7c0-2.6-2.1-4.7-4.7-4.7c-2.6,0-4.7,2.1-4.7,4.7v54.2
						c0,32.6-26.4,59.1-59.1,59.1c-32.6,0-59.1-26.4-59.1-59.1V58.7c0-2.6-2.1-4.7-4.7-4.7c-2.6,0-4.7,2.1-4.7,4.7v54.2
						C258.1,150.7,288.7,181.3,326.5,181.3z"/>
					<path class="st1" d="M326.5,177.1c37.8,0,68.5-30.6,68.5-68.4V54.4c0-2.6-2.1-4.7-4.7-4.7c-2.6,0-4.7,2.1-4.7,4.7v54.2
						c0,32.6-26.4,59.1-59.1,59.1c-32.6,0-59.1-26.4-59.1-59.1V54.4c0-2.6-2.1-4.7-4.7-4.7c-2.6,0-4.7,2.1-4.7,4.7v54.2
						C258.1,146.4,288.7,177.1,326.5,177.1z"/>
				</g>
			</g>
			<path class="st15" d="M635.1,388.1h-0.3l0,0C634.9,388.1,635,388.1,635.1,388.1z"/>
		</g>
		<g class="st16">
			<circle class="st17" cx="508.1" cy="385.6" r="10.4"/>
			<path class="st17" d="M447.9,408.3h-10.4H271.9c0,0,0,0,0,0c-7.5,0-13.6-6.1-13.6-13.6c0-3.6,1.4-7.1,4-9.7c2.6-2.6,6-4,9.6-4
				V381h99.6c7,0,12.7-5.7,12.7-12.7c0-7-5.7-12.7-12.7-12.7H33.5C18.3,355.6,6,343.3,6,328.1c0-15.2,12.3-27.5,27.5-27.5h94.3
				c10,0,18.2-8.2,18.2-18.2c0-10-8.1-18.2-18.2-18.2H62.4c-5,0-9-4-9-9s4-9,9-9h140.1v-6H62.4c-8.3,0-15,6.7-15,15s6.7,15,15,15
				h65.5c6.7,0,12.2,5.5,12.2,12.2c0,6.7-5.5,12.2-12.2,12.2H33.5C15,294.6,0,309.6,0,328.1c0,18.5,15,33.5,33.5,33.5h337.9
				c3.7,0,6.7,3,6.7,6.7s-3,6.7-6.7,6.7h-99.6v3.1l0-3c-5.2,0-10.2,2-13.9,5.8c-3.7,3.7-5.7,8.6-5.7,13.9c0,10.8,8.8,19.6,19.6,19.6
				l0,0h0c0,0,0,0,0,0h165.6h10.4h39v-6H447.9z"/>
			<path class="st17" d="M652.6,406.1c0-0.1,0-0.2,0-0.3c0-0.5-0.1-0.9-0.2-1.4c0-0.2-0.1-0.4-0.1-0.6c-0.1-0.4-0.2-0.8-0.3-1.1
				c-0.1-0.2-0.1-0.5-0.2-0.7c-0.1-0.4-0.3-0.8-0.5-1.3c0-0.1-0.1-0.1-0.1-0.2c-7.4-17.8-41.4-31.4-82.7-32.2
				c-41.4,0.7-75.4,14.3-82.7,32.2c0,0.1-0.1,0.1-0.1,0.2c-0.2,0.4-0.3,0.8-0.5,1.3c-0.1,0.2-0.2,0.5-0.2,0.7
				c-0.1,0.4-0.2,0.8-0.3,1.1c0,0.2-0.1,0.4-0.1,0.6c-0.1,0.5-0.2,0.9-0.2,1.4c0,0.1,0,0.2,0,0.3c-0.1,0.6-0.1,1.1-0.1,1.7
				c0,0.5,0,1.1,0.1,1.6c0,0.2,0,0.4,0.1,0.6c0,0.4,0.1,0.7,0.2,1.1c0.1,0.4,0.2,0.8,0.3,1.2c0.1,0.2,0.1,0.4,0.2,0.6
				c0.1,0.3,0.2,0.6,0.3,0.9c0.1,0.3,0.2,0.6,0.3,0.8c0.1,0.2,0.1,0.3,0.2,0.5c2.8,6.6,9.4,11.2,17,11.2h65.8h65.8
				c7.6,0,14.2-4.6,17-11.2c0.1-0.2,0.1-0.3,0.2-0.5c0.1-0.3,0.2-0.6,0.3-0.8c0.1-0.3,0.2-0.6,0.3-0.9c0.1-0.2,0.1-0.4,0.2-0.6
				c0.1-0.4,0.2-0.8,0.3-1.2c0.1-0.3,0.1-0.7,0.2-1.1c0-0.2,0-0.4,0.1-0.6c0-0.5,0.1-1.1,0.1-1.6
				C652.7,407.2,652.7,406.6,652.6,406.1z"/>
			<g>
				<rect x="196.4" class="st17" width="260.7" height="306.5"/>
				<polygon class="st17" points="210.8,306.5 196.4,296.3 196.4,0 210.8,10.2 				"/>
				<polygon class="st17" points="210.8,306.5 186.5,319.7 186.5,23.4 210.8,10.2 				"/>
				<polygon class="st17" points="442.7,306.5 457.1,296.3 457.1,0 442.7,10.2 				"/>
				<polygon class="st17" points="442.7,306.5 467,319.7 467,23.4 442.7,10.2 				"/>
				<rect x="186.5" y="23.4" class="st17" width="280.5" height="296.3"/>
				<polygon class="st18" points="467,23.4 186.5,23.4 186.5,311.8 467,31.3 				"/>
				<g>
					<path class="st17" d="M383.9,54c0-3.5,2.8-6.3,6.3-6.3c3.5,0,6.3,2.8,6.3,6.3c0,3.5-2.8,6.3-6.3,6.3
						C386.7,60.3,383.9,57.4,383.9,54z"/>
					<path class="st17" d="M256.5,54c0-3.5,2.8-6.3,6.3-6.3c3.5,0,6.3,2.8,6.3,6.3c0,3.5-2.8,6.3-6.3,6.3
						C259.3,60.3,256.5,57.4,256.5,54z"/>
					<path class="st17" d="M326.5,181.3c37.8,0,68.5-30.6,68.5-68.4V58.7c0-2.6-2.1-4.7-4.7-4.7c-2.6,0-4.7,2.1-4.7,4.7v54.2
						c0,32.6-26.4,59.1-59.1,59.1c-32.6,0-59.1-26.4-59.1-59.1V58.7c0-2.6-2.1-4.7-4.7-4.7c-2.6,0-4.7,2.1-4.7,4.7v54.2
						C258.1,150.7,288.7,181.3,326.5,181.3z"/>
					<path class="st17" d="M326.5,177.1c37.8,0,68.5-30.6,68.5-68.4V54.4c0-2.6-2.1-4.7-4.7-4.7c-2.6,0-4.7,2.1-4.7,4.7v54.2
						c0,32.6-26.4,59.1-59.1,59.1c-32.6,0-59.1-26.4-59.1-59.1V54.4c0-2.6-2.1-4.7-4.7-4.7c-2.6,0-4.7,2.1-4.7,4.7v54.2
						C258.1,146.4,288.7,177.1,326.5,177.1z"/>
				</g>
			</g>
			<path class="st17" d="M635.1,388.1h-0.3l0,0C634.9,388.1,635,388.1,635.1,388.1z"/>
		</g>
	</g>
</g>
</svg>
