<?xml version="1.0" encoding="utf-8"?>
<!-- Generator: Adobe Illustrator 23.0.5, SVG Export Plug-In . SVG Version: 6.00 Build 0)  -->
<svg version="1.1" xmlns="http://www.w3.org/2000/svg" xmlns:xlink="http://www.w3.org/1999/xlink" x="0px" y="0px"
	 viewBox="0 0 273.5 422.9" style="enable-background:new 0 0 273.5 422.9;" xml:space="preserve">
<style type="text/css">
	.st0{fill:#F2B58A;}
	.st1{fill:#E2B08F;}
	.st2{fill:#F7D3B9;}
	.st3{opacity:0.2;}
	.st4{fill:#3B3239;}
	.st5{fill:#5A84A2;}
	.st6{fill:#625B61;}
	.st7{fill:#97CBFF;}
	.st8{fill:#F895AC;}
	.st9{opacity:0.8;}
	.st10{fill:#ACC4D4;}
	.st11{fill:#135685;}
	.st12{fill:#EC614E;}
	.st13{opacity:0.5;}
	.st14{fill:#FFFFFF;}
	.st15{opacity:0.5;fill:#FFFFFF;}
	.st16{fill:#DCE6ED;}
	.st17{fill:#EAF0F4;}
	.st18{fill:#4E80A4;}
</style>
<g id="Layer_3">
</g>
<g id="Layer_1">
</g>
<g id="Layer_2">
	<g>
		<path class="st0" d="M33,91.8c-8.1-8-17.8-10.5-26.5-3.2v0c-8.7,7.4-4.9,16.1,3.1,24.1l41.4,48.6c8.1,8,21.7,8.4,30.5,1.1
			c8.7-7.4,8.6-12.7,0.5-20.6L33,91.8z"/>
		<path class="st1" d="M240,170.4c0,0-24.1-1.7-24.5,32.2l10.1,83.2l-163.9,47c11.7,16.9,16.2,47.8,60.4,90.2H267l-8.5-12.1
			l12.4-86.4c2.7-9.5,3.3-24.9,1.8-35.1L240,170.4z"/>
		<path class="st2" d="M236.3,185.1l4.2,11c0,0,0.8,2.5,7,2.8c0,0-6.8-28.4-6.8-28.4C235.1,171,234.4,180.2,236.3,185.1z"/>
		<g>
			<g class="st3">
				<g>
					<path class="st4" d="M178.8,299c-1.7,0.4-54,1.5-61.9,6.6c-9.3,6.1-19,11.6-27.9,18.1c-4.5,3.3-9,6.6-13.1,10.3
						c-3.3,2.9-6.8,4.8-8.5,8.8c1.1,1.9,0.9,1.8,1.9,3.8l140.1,3c6.4,0,11.5-5,11.5-11.2l-3.4-50.3C203.5,292.2,193,295.4,178.8,299
						z"/>
				</g>
			</g>
			<g>
				<g>
					<path class="st5" d="M204.6,0H41.1c-6.4,0-11.5,5-11.5,11.2v321.9c0,6.2,5.2,11.2,11.5,11.2h144.6h18.9c6.4,0,11.5-5,11.5-11.2
						V11.2C216.1,5,210.9,0,204.6,0z"/>
				</g>
			</g>
			<g>
				<path class="st6" d="M137.2,7.7h-42c-1.4,0-2.6,1.1-2.6,2.4v0.2c0,1.3,1.2,2.4,2.6,2.4h42c1.4,0,2.6-1.1,2.6-2.4v-0.2
					C139.8,8.8,138.6,7.7,137.2,7.7z"/>
				<ellipse class="st6" cx="150.3" cy="10.2" rx="2.8" ry="2.7"/>
			</g>
			<path class="st7" d="M196.9,19.2h-147c-5.7,0-10.4,4.6-10.4,10.3v289.3c0,5.7,4.6,10.3,10.4,10.3h130.1h17
				c5.7,0,10.4-4.6,10.4-10.3V29.4C207.2,23.8,202.6,19.2,196.9,19.2z"/>
			<path class="st8" d="M196.9,19.2h-147c-5.7,0-10.4,4.6-10.4,10.3v23.7h167.7V29.4C207.2,23.8,202.6,19.2,196.9,19.2z"/>
			<path class="st8" d="M39.5,318.8c0,5.7,4.6,10.3,10.4,10.3h147c5.7,0,10.4-4.6,10.4-10.3v-51.9H39.5V318.8z"/>
			<g class="st9">
				<g>
					<path class="st10" d="M182.1,78.4c-1.6,0-2.9,1.2-2.9,2.6c0,1.4,1.3,2.6,2.9,2.6c1.6,0,2.9-1.2,2.9-2.6
						C185,79.6,183.7,78.4,182.1,78.4z"/>
					<path class="st10" d="M186,84.3h-7.8c-1.5,0-2.7,1.1-2.7,2.5v9.5c0,0.6,0.5,1.1,1.2,1.1c0.6,0,1.2-0.5,1.2-1.1v-8.5h1.1l-0.1,9
						h0v13.4c0,0.6,0.6,1.2,1.3,1.2c0.7,0,1.3-0.5,1.3-1.2V96.7h1.2v13.4c0,0.6,0.6,1.2,1.3,1.2c0.7,0,1.3-0.5,1.3-1.2V96.7h0l0-9h1
						v8.5c0,0.6,0.5,1.1,1.2,1.1c0.6,0,1.2-0.5,1.2-1.1v-9.5C188.7,85.4,187.5,84.3,186,84.3z"/>
				</g>
				<g>
					<path class="st10" d="M165,78.4c-1.6,0-2.9,1.2-2.9,2.6c0,1.4,1.3,2.6,2.9,2.6c1.6,0,2.9-1.2,2.9-2.6
						C167.9,79.6,166.6,78.4,165,78.4z"/>
					<path class="st10" d="M168.9,84.3h-7.8c-1.5,0-2.7,1.1-2.7,2.5v9.5c0,0.6,0.5,1.1,1.2,1.1c0.6,0,1.2-0.5,1.2-1.1v-8.5h1.1
						l-0.1,9h0v13.4c0,0.6,0.6,1.2,1.3,1.2c0.7,0,1.3-0.5,1.3-1.2V96.7h1.2v13.4c0,0.6,0.6,1.2,1.3,1.2c0.7,0,1.3-0.5,1.3-1.2V96.7
						h0l0-9h1v8.5c0,0.6,0.5,1.1,1.2,1.1c0.6,0,1.2-0.5,1.2-1.1v-9.5C171.6,85.4,170.4,84.3,168.9,84.3z"/>
				</g>
				<g>
					<path class="st10" d="M147.9,78.4c-1.6,0-2.9,1.2-2.9,2.6c0,1.4,1.3,2.6,2.9,2.6c1.6,0,2.9-1.2,2.9-2.6
						C150.8,79.6,149.5,78.4,147.9,78.4z"/>
					<path class="st10" d="M151.8,84.3H144c-1.5,0-2.7,1.1-2.7,2.5v9.5c0,0.6,0.5,1.1,1.2,1.1c0.6,0,1.2-0.5,1.2-1.1v-8.5h1.1
						l-0.1,9h0v13.4c0,0.6,0.6,1.2,1.3,1.2c0.7,0,1.3-0.5,1.3-1.2V96.7h1.2v13.4c0,0.6,0.6,1.2,1.3,1.2c0.7,0,1.3-0.5,1.3-1.2V96.7
						h0l0-9h1v8.5c0,0.6,0.5,1.1,1.2,1.1c0.6,0,1.2-0.5,1.2-1.1v-9.5C154.5,85.4,153.3,84.3,151.8,84.3z"/>
				</g>
				<g>
					<path class="st11" d="M130.8,78.4c-1.6,0-2.9,1.2-2.9,2.6c0,1.4,1.3,2.6,2.9,2.6c1.6,0,2.9-1.2,2.9-2.6
						C133.7,79.6,132.4,78.4,130.8,78.4z"/>
					<path class="st11" d="M134.7,84.3h-7.8c-1.5,0-2.7,1.1-2.7,2.5v9.5c0,0.6,0.5,1.1,1.2,1.1c0.6,0,1.2-0.5,1.2-1.1v-8.5h1.1
						l-0.1,9h0v13.4c0,0.6,0.6,1.2,1.3,1.2c0.7,0,1.3-0.5,1.3-1.2V96.7h1.2v13.4c0,0.6,0.6,1.2,1.3,1.2c0.7,0,1.3-0.5,1.3-1.2V96.7
						h0l0-9h1v8.5c0,0.6,0.5,1.1,1.2,1.1c0.6,0,1.2-0.5,1.2-1.1v-9.5C137.4,85.4,136.2,84.3,134.7,84.3z"/>
				</g>
				<g>
					<path class="st12" d="M113.7,78.4c-1.6,0-2.9,1.2-2.9,2.6c0,1.4,1.3,2.6,2.9,2.6c1.6,0,2.9-1.2,2.9-2.6
						C116.6,79.6,115.3,78.4,113.7,78.4z"/>
					<path class="st12" d="M117.7,84.3h-7.8c-1.5,0-2.7,1.1-2.7,2.5v9.5c0,0.6,0.5,1.1,1.2,1.1c0.6,0,1.2-0.5,1.2-1.1v-8.5h1.1
						l-0.1,9h0v13.4c0,0.6,0.6,1.2,1.3,1.2s1.3-0.5,1.3-1.2V96.7h1.2v13.4c0,0.6,0.6,1.2,1.3,1.2c0.7,0,1.3-0.5,1.3-1.2V96.7h0l0-9
						h1v8.5c0,0.6,0.5,1.1,1.2,1.1c0.6,0,1.2-0.5,1.2-1.1v-9.5C120.3,85.4,119.1,84.3,117.7,84.3z"/>
				</g>
				<g>
					<path class="st12" d="M96.6,78.4c-1.6,0-2.9,1.2-2.9,2.6c0,1.4,1.3,2.6,2.9,2.6c1.6,0,2.9-1.2,2.9-2.6
						C99.5,79.6,98.2,78.4,96.6,78.4z"/>
					<path class="st12" d="M100.6,84.3h-7.8c-1.5,0-2.7,1.1-2.7,2.5v9.5c0,0.6,0.5,1.1,1.2,1.1c0.6,0,1.2-0.5,1.2-1.1v-8.5h1.1
						l-0.1,9h0v13.4c0,0.6,0.6,1.2,1.3,1.2c0.7,0,1.3-0.5,1.3-1.2V96.7h1.2v13.4c0,0.6,0.6,1.2,1.3,1.2c0.7,0,1.3-0.5,1.3-1.2V96.7
						h0l0-9h1v8.5c0,0.6,0.5,1.1,1.2,1.1c0.6,0,1.2-0.5,1.2-1.1v-9.5C103.2,85.4,102,84.3,100.6,84.3z"/>
				</g>
				<g>
					<path class="st12" d="M79.6,78.4c-1.6,0-2.9,1.2-2.9,2.6c0,1.4,1.3,2.6,2.9,2.6c1.6,0,2.9-1.2,2.9-2.6
						C82.4,79.6,81.1,78.4,79.6,78.4z"/>
					<path class="st12" d="M83.5,84.3h-7.8c-1.5,0-2.7,1.1-2.7,2.5v9.5c0,0.6,0.5,1.1,1.2,1.1c0.6,0,1.2-0.5,1.2-1.1v-8.5h1.1
						l-0.1,9h0v13.4c0,0.6,0.6,1.2,1.3,1.2c0.7,0,1.3-0.5,1.3-1.2V96.7h1.2v13.4c0,0.6,0.6,1.2,1.3,1.2c0.7,0,1.3-0.5,1.3-1.2V96.7
						h0l0-9h1v8.5c0,0.6,0.5,1.1,1.2,1.1c0.6,0,1.2-0.5,1.2-1.1v-9.5C86.1,85.4,84.9,84.3,83.5,84.3z"/>
				</g>
				<g>
					<path class="st12" d="M62.5,78.4c-1.6,0-2.9,1.2-2.9,2.6c0,1.4,1.3,2.6,2.9,2.6c1.6,0,2.9-1.2,2.9-2.6
						C65.3,79.6,64,78.4,62.5,78.4z"/>
					<path class="st12" d="M66.4,84.3h-7.8c-1.5,0-2.7,1.1-2.7,2.5v9.5c0,0.6,0.5,1.1,1.2,1.1c0.6,0,1.2-0.5,1.2-1.1v-8.5h1.1
						l-0.1,9h0v13.4c0,0.6,0.6,1.2,1.3,1.2c0.7,0,1.3-0.5,1.3-1.2V96.7h1.2v13.4c0,0.6,0.6,1.2,1.3,1.2c0.7,0,1.3-0.5,1.3-1.2V96.7
						h0l0-9h1v8.5c0,0.6,0.5,1.1,1.2,1.1c0.6,0,1.2-0.5,1.2-1.1v-9.5C69,85.4,67.8,84.3,66.4,84.3z"/>
				</g>
			</g>
			<g class="st13">
				<g>
					<path class="st14" d="M198.9,35.6l2.4-1.5c-0.1-0.3-0.2-0.5-0.4-0.8c-0.1-0.3-0.2-0.6-0.4-0.8l-2.9,0.5c-0.3-0.5-0.8-1-1.3-1.4
						l1-2.5c-0.5-0.4-1.1-0.7-1.7-0.9l-2,1.9c-0.6-0.2-1.1-0.4-1.9-0.4l-0.7-2.5c-0.7,0-1.4,0.1-2,0.2l-0.3,2.6
						c-0.3,0.1-0.7,0.2-0.9,0.3c-0.3,0.1-0.6,0.3-0.9,0.4l-2.3-1.6c-0.5,0.4-1,0.7-1.5,1.2l1.4,2.3c-0.4,0.5-0.7,1-1,1.5l-2.9-0.1
						c-0.2,0.6-0.4,1.2-0.4,1.8l2.6,1c-0.1,0.6-0.1,1.2,0.1,1.8l-2.4,1.5c0.1,0.3,0.2,0.5,0.4,0.9c0.1,0.2,0.3,0.5,0.3,0.8l2.9-0.5
						c0.4,0.5,0.8,0.9,1.3,1.4l-1,2.5c0.5,0.4,1.1,0.7,1.7,0.9l2-1.9c0.6,0.2,1.3,0.3,1.8,0.4l0.9,2.5c0.6,0.1,1.3,0,1.9-0.1
						l0.3-2.6c0.4-0.1,0.6-0.1,0.9-0.2c0.3-0.1,0.6-0.3,0.9-0.4l2.3,1.6c0.6-0.4,1.1-0.7,1.5-1.2l-1.4-2.3c0.4-0.5,0.7-1,1-1.5
						l2.9,0.1c0.3-0.6,0.4-1.2,0.4-1.8l-2.5-1.1C199,36.8,199,36.2,198.9,35.6z M192.9,41.3c-2.6,1-5.5-0.1-6.6-2.5
						c-1-2.3,0.2-5,2.7-6c2.6-1,5.5,0.2,6.6,2.5C196.7,37.6,195.4,40.3,192.9,41.3z"/>
				</g>
				<g>
					<path class="st14" d="M178.3,36.7c-0.1-0.4-0.3-0.9-0.6-1.4l1.6-1.7c-0.1-0.2-0.3-0.4-0.5-0.6c-0.1-0.2-0.3-0.4-0.5-0.6l-2.2,1
						c-0.4-0.4-0.8-0.6-1.4-0.8l0.2-2.2c-0.5-0.2-1.1-0.3-1.6-0.4l-1.1,2c-0.6,0-1-0.1-1.6,0l-1.2-1.9c-0.6,0.1-1.1,0.3-1.6,0.5
						l0.4,2.2c-0.3,0.2-0.5,0.3-0.7,0.4c-0.2,0.2-0.4,0.4-0.6,0.5l-2.2-0.8c-0.3,0.4-0.6,0.8-0.9,1.3l1.7,1.6
						c-0.2,0.5-0.4,0.9-0.4,1.4l-2.4,0.5c0,0.5-0.1,1,0.1,1.5l2.4,0.3c0.1,0.5,0.2,1,0.5,1.4l-1.6,1.7c0.2,0.2,0.3,0.4,0.5,0.6
						c0.2,0.2,0.4,0.4,0.5,0.6l2.2-1c0.4,0.4,0.9,0.6,1.4,0.8l-0.2,2.2c0.5,0.2,1.1,0.3,1.6,0.4l1.1-2c0.6,0,1.1,0,1.6,0l1.3,1.8
						c0.5,0,1-0.3,1.5-0.5l-0.4-2.2c0.3-0.1,0.5-0.2,0.7-0.4c0.2-0.2,0.5-0.4,0.6-0.5l2.2,0.8c0.4-0.4,0.7-0.8,0.9-1.3l-1.7-1.5
						c0.2-0.5,0.4-1,0.4-1.4l2.4-0.5c0.1-0.5,0.1-1-0.1-1.5L178.3,36.7z M174.3,41.2c-1.8,1.3-4.5,1-5.9-0.7
						c-1.4-1.7-1.1-4.1,0.7-5.4c1.8-1.3,4.5-1,5.9,0.7C176.5,37.4,176.1,39.8,174.3,41.2z"/>
				</g>
			</g>
			<rect x="45.9" y="28.5" class="st15" width="62" height="14.6"/>
			<g>
				<g>
					<rect x="54.6" y="131.6" class="st16" width="41.7" height="53.5"/>
					<rect x="54.6" y="158" class="st17" width="41.7" height="27.1"/>
				</g>
				<g>
					<rect x="102" y="131.6" class="st16" width="41.7" height="53.5"/>
					<rect x="102" y="158" class="st17" width="41.7" height="27.1"/>
				</g>
				<g>
					<rect x="149.3" y="131.6" class="st16" width="41.7" height="53.5"/>
					<rect x="149.3" y="158" class="st17" width="41.7" height="27.1"/>
				</g>
				<path class="st11" d="M75.4,139c-4.5,0-7.9,1.6-10.1,4.8c-2.2,3.1-3.3,8-3.3,14.4c0,6.3,1.1,11.1,3.3,14.4c2.3,3.3,5.6,5,10,5
					c4.5,0,8-1.6,10.2-4.9c2.2-3.2,3.3-8,3.3-14.5c0-6.2-1.1-11-3.4-14.3C83.2,140.7,79.8,139,75.4,139z M82.5,170.4
					c-1.5,2.7-3.8,3.9-7.1,3.9c-3.1,0-5.4-1.2-6.9-3.8c-1.6-2.6-2.4-6.8-2.4-12.3c0-5.3,0.8-9.4,2.3-12.1c1.5-2.6,3.8-3.9,7-3.9
					s5.6,1.3,7.1,3.9c1.5,2.7,2.3,6.8,2.3,12.1C84.8,163.6,84,167.7,82.5,170.4z"/>
				<path class="st11" d="M113.4,147.4l2.2,2.5l0.4-0.3c6.3-4.5,8-5.7,8.4-6c-0.2,2.2-0.2,4.3-0.2,6.3v27.1h3.8v-37.5h-3.1
					L113.4,147.4z"/>
				<path class="st11" d="M172,165.1c3.6-3.3,6.1-6.2,7.5-8.5c1.4-2.3,2.1-4.8,2.1-7.2c0-3.1-1.1-5.6-3.2-7.4
					c-2.1-1.8-5-2.7-8.6-2.7c-4.2,0-8.1,1.3-11.5,4l-0.4,0.3l2.1,2.5l0.4-0.3c2.9-2.1,6.1-3.2,9.3-3.2c2.4,0,4.3,0.6,5.8,1.9
					c1.5,1.3,2.2,2.9,2.2,5c0,1.4-0.3,2.8-0.8,4.1c-0.5,1.3-1.4,2.7-2.6,4.2c-1.2,1.5-3.3,3.6-6.3,6.5l-10.8,10.3v2.9h26.2V174
					h-20.8L172,165.1z"/>
			</g>
			<rect x="58.4" y="272.3" class="st15" width="61.6" height="18.7"/>
			<rect x="125.5" y="272.3" class="st15" width="61.6" height="18.7"/>
			<g>
				<g>
					<ellipse class="st17" cx="122.8" cy="227.2" rx="24" ry="21.9"/>
				</g>
				<g>
					<path class="st18" d="M135.4,219.6l-14.3,13l-9.8-8.9c-0.5-0.5-1.4-0.5-1.9,0c-0.5,0.5-0.5,1.3,0,1.7l10.8,9.8
						c0.3,0.2,0.6,0.4,1,0.4c0.3,0,0.7-0.1,1-0.4l15.3-13.9c0.5-0.5,0.5-1.3,0-1.7C136.8,219.1,135.9,219.1,135.4,219.6z"/>
				</g>
			</g>
		</g>
		<g>
			<path class="st0" d="M47.8,187.7l-10.5-5.1c-9-5.2-21-2.8-26.8,5.4v0c-5.7,8.2-3.1,19.2,6,24.4l10.5,5.1c9,5.2,21,2.8,26.8-5.4
				C59.5,203.8,56.8,192.9,47.8,187.7z"/>
			<path class="st0" d="M43.2,224.3l-10.5-5.1c-9-5.2-21-2.8-26.8,5.4c-5.8,8.2-3.1,19.2,6,24.4l10.5,5.1c9,5.2,21,2.8,26.8-5.4
				C54.9,240.4,52.2,229.5,43.2,224.3z"/>
			<path class="st0" d="M35.5,261.7l-2.9-1.2c-9-5.2-21-2.8-26.8,5.4c-5.8,8.2-3.1,19.2,6,24.4l2.9,1.2c9,5.2,21,2.8,26.8-5.4
				C47.2,277.8,44.6,266.9,35.5,261.7z"/>
			<path class="st2" d="M12.3,274c-1.6,9,4.7,7.6,4.7,7.6s-1.6-11.8,13-18.9l-6.7,0.5C23.2,263.1,13.9,265,12.3,274z"/>
			<path class="st2" d="M17.5,233.6c-1.6,9,7.3,9.5,7.3,9.5s-1.6-11.8,13-18.9l-9.3-1.4C28.4,222.7,19.1,224.6,17.5,233.6z"/>
			<path class="st2" d="M23.9,197.8c-1.6,9,9.3,12.3,9.3,12.3s-1.6-11.8,13-18.9l-11.4-3.5C34.8,187.7,25.4,188.8,23.9,197.8z"/>
		</g>
	</g>
</g>
</svg>
