<?xml version="1.0" encoding="utf-8"?>
<!-- Generator: Adobe Illustrator 23.0.5, SVG Export Plug-In . SVG Version: 6.00 Build 0)  -->
<svg version="1.1" xmlns="http://www.w3.org/2000/svg" xmlns:xlink="http://www.w3.org/1999/xlink" x="0px" y="0px"
	 viewBox="0 0 273.5 464.4" style="enable-background:new 0 0 273.5 464.4;" xml:space="preserve">
<style type="text/css">
	.st0{opacity:0.55;fill:#F2B58A;}
	.st1{opacity:0.55;fill:#E2B08F;}
	.st2{fill:#F7D3B9;}
	.st3{opacity:0.2;}
	.st4{fill:#3B3239;}
	.st5{fill:#5A84A2;}
	.st6{fill:#625B61;}
	.st7{fill:#97CBFF;}
	.st8{fill:#F895AC;}
	.st9{opacity:0.8;}
	.st10{fill:#ACC4D4;}
	.st11{fill:#135685;}
	.st12{fill:#EC614E;}
	.st13{opacity:0.5;}
	.st14{fill:#FFFFFF;}
	.st15{opacity:0.5;fill:#FFFFFF;}
	.st16{fill:#DCE6ED;}
	.st17{fill:#EAF0F4;}
	.st18{fill:#4E80A4;}
	.st19{opacity:0.55;}
	.st20{fill:#F2B58A;}
	.st21{opacity:0.55;fill:#FFFFFF;}
</style>
<g id="Layer_3">
</g>
<g id="Layer_1">
</g>
<g id="Layer_2">
	<g>
		<path class="st0" d="M33,100.7C24.9,92,15.2,89.2,6.5,97.3v0c-8.7,8.1-4.9,17.7,3.1,26.4L51.1,177c8.1,8.7,21.7,9.3,30.5,1.2
			c8.7-8.1,8.6-13.9,0.5-22.6L33,100.7z"/>
		<path class="st1" d="M240,186.9c0,0-24.1-1.8-24.5,35.3l10.1,91.3L61.7,365c11.7,18.6,16.2,52.4,60.4,99H267l-8.5-13.3l12.4-94.8
			c2.7-10.4,3.3-27.3,1.8-38.5L240,186.9z"/>
		<path class="st2" d="M236.3,203l4.2,12.1c0,0,0.8,2.7,7,3.1c0,0-6.8-31.1-6.8-31.1C235.1,187.6,234.4,197.7,236.3,203z"/>
		<g>
			<g class="st3">
				<g>
					<path class="st4" d="M178.8,328c-1.7,0.5-54,1.6-61.9,7.3c-9.3,6.7-19,12.8-27.9,19.9c-4.5,3.6-9,7.3-13.1,11.3
						c-3.3,3.2-6.8,5.2-8.5,9.6c1.1,2.1,0.9,2,1.9,4.1l140.1,3.3c6.4,0,11.5-5.5,11.5-12.3l-3.4-55.1
						C203.5,320.5,193,324.1,178.8,328z"/>
				</g>
			</g>
			<g>
				<g>
					<path class="st5" d="M204.6,0H41.1c-6.4,0-11.5,5.5-11.5,12.3v353.2c0,6.8,5.2,12.3,11.5,12.3h144.6h18.9
						c6.4,0,11.5-5.5,11.5-12.3V12.3C216.1,5.5,210.9,0,204.6,0z"/>
				</g>
			</g>
			<g>
				<path class="st6" d="M137.2,8.5h-42c-1.4,0-2.6,1.2-2.6,2.6v0.2c0,1.4,1.2,2.6,2.6,2.6h42c1.4,0,2.6-1.2,2.6-2.6v-0.2
					C139.8,9.6,138.6,8.5,137.2,8.5z"/>
				<ellipse class="st6" cx="150.3" cy="11.2" rx="2.8" ry="3"/>
			</g>
			<path class="st7" d="M199.8,21H45.9c-6,0-10.8,5-10.8,11.3v317.5c0,6.2,4.9,11.3,10.8,11.3H182h17.8c6,0,10.8-5,10.8-11.3V32.3
				C210.6,26.1,205.8,21,199.8,21z"/>
			<path class="st8" d="M199.8,21H45.9c-6,0-10.8,5-10.8,11.3v26h175.6v-26C210.6,26.1,205.8,21,199.8,21z"/>
			<path class="st8" d="M35,349.8c0,6.2,4.9,11.3,10.8,11.3h153.9c6,0,10.8-5,10.8-11.3v-57H35V349.8z"/>
			<g class="st9">
				<g>
					<path class="st10" d="M182.1,86.1c-1.6,0-2.9,1.3-2.9,2.8c0,1.6,1.3,2.8,2.9,2.8c1.6,0,2.9-1.3,2.9-2.8
						C185,87.3,183.7,86.1,182.1,86.1z"/>
					<path class="st10" d="M186,92.5h-7.8c-1.5,0-2.7,1.2-2.7,2.7v10.4c0,0.6,0.5,1.2,1.2,1.2c0.6,0,1.2-0.5,1.2-1.2v-9.3h1.1
						l-0.1,9.8h0v14.7c0,0.7,0.6,1.3,1.3,1.3c0.7,0,1.3-0.6,1.3-1.3V106h1.2v14.7c0,0.7,0.6,1.3,1.3,1.3c0.7,0,1.3-0.6,1.3-1.3V106
						h0l0-9.8h1v9.3c0,0.6,0.5,1.2,1.2,1.2c0.6,0,1.2-0.5,1.2-1.2V95.2C188.7,93.7,187.5,92.5,186,92.5z"/>
				</g>
				<g>
					<path class="st10" d="M165,86.1c-1.6,0-2.9,1.3-2.9,2.8c0,1.6,1.3,2.8,2.9,2.8c1.6,0,2.9-1.3,2.9-2.8
						C167.9,87.3,166.6,86.1,165,86.1z"/>
					<path class="st10" d="M168.9,92.5h-7.8c-1.5,0-2.7,1.2-2.7,2.7v10.4c0,0.6,0.5,1.2,1.2,1.2c0.6,0,1.2-0.5,1.2-1.2v-9.3h1.1
						l-0.1,9.8h0v14.7c0,0.7,0.6,1.3,1.3,1.3c0.7,0,1.3-0.6,1.3-1.3V106h1.2v14.7c0,0.7,0.6,1.3,1.3,1.3c0.7,0,1.3-0.6,1.3-1.3V106
						h0l0-9.8h1v9.3c0,0.6,0.5,1.2,1.2,1.2c0.6,0,1.2-0.5,1.2-1.2V95.2C171.6,93.7,170.4,92.5,168.9,92.5z"/>
				</g>
				<g>
					<path class="st10" d="M147.9,86.1c-1.6,0-2.9,1.3-2.9,2.8c0,1.6,1.3,2.8,2.9,2.8c1.6,0,2.9-1.3,2.9-2.8
						C150.8,87.3,149.5,86.1,147.9,86.1z"/>
					<path class="st10" d="M151.8,92.5H144c-1.5,0-2.7,1.2-2.7,2.7v10.4c0,0.6,0.5,1.2,1.2,1.2c0.6,0,1.2-0.5,1.2-1.2v-9.3h1.1
						l-0.1,9.8h0v14.7c0,0.7,0.6,1.3,1.3,1.3c0.7,0,1.3-0.6,1.3-1.3V106h1.2v14.7c0,0.7,0.6,1.3,1.3,1.3c0.7,0,1.3-0.6,1.3-1.3V106
						h0l0-9.8h1v9.3c0,0.6,0.5,1.2,1.2,1.2c0.6,0,1.2-0.5,1.2-1.2V95.2C154.5,93.7,153.3,92.5,151.8,92.5z"/>
				</g>
				<g>
					<path class="st11" d="M130.8,86.1c-1.6,0-2.9,1.3-2.9,2.8c0,1.6,1.3,2.8,2.9,2.8c1.6,0,2.9-1.3,2.9-2.8
						C133.7,87.3,132.4,86.1,130.8,86.1z"/>
					<path class="st11" d="M134.7,92.5h-7.8c-1.5,0-2.7,1.2-2.7,2.7v10.4c0,0.6,0.5,1.2,1.2,1.2c0.6,0,1.2-0.5,1.2-1.2v-9.3h1.1
						l-0.1,9.8h0v14.7c0,0.7,0.6,1.3,1.3,1.3c0.7,0,1.3-0.6,1.3-1.3V106h1.2v14.7c0,0.7,0.6,1.3,1.3,1.3c0.7,0,1.3-0.6,1.3-1.3V106
						h0l0-9.8h1v9.3c0,0.6,0.5,1.2,1.2,1.2c0.6,0,1.2-0.5,1.2-1.2V95.2C137.4,93.7,136.2,92.5,134.7,92.5z"/>
				</g>
				<g>
					<path class="st12" d="M113.7,86.1c-1.6,0-2.9,1.3-2.9,2.8c0,1.6,1.3,2.8,2.9,2.8c1.6,0,2.9-1.3,2.9-2.8
						C116.6,87.3,115.3,86.1,113.7,86.1z"/>
					<path class="st12" d="M117.7,92.5h-7.8c-1.5,0-2.7,1.2-2.7,2.7v10.4c0,0.6,0.5,1.2,1.2,1.2c0.6,0,1.2-0.5,1.2-1.2v-9.3h1.1
						l-0.1,9.8h0v14.7c0,0.7,0.6,1.3,1.3,1.3s1.3-0.6,1.3-1.3V106h1.2v14.7c0,0.7,0.6,1.3,1.3,1.3c0.7,0,1.3-0.6,1.3-1.3V106h0
						l0-9.8h1v9.3c0,0.6,0.5,1.2,1.2,1.2c0.6,0,1.2-0.5,1.2-1.2V95.2C120.3,93.7,119.1,92.5,117.7,92.5z"/>
				</g>
				<g>
					<path class="st12" d="M96.6,86.1c-1.6,0-2.9,1.3-2.9,2.8c0,1.6,1.3,2.8,2.9,2.8c1.6,0,2.9-1.3,2.9-2.8
						C99.5,87.3,98.2,86.1,96.6,86.1z"/>
					<path class="st12" d="M100.6,92.5h-7.8c-1.5,0-2.7,1.2-2.7,2.7v10.4c0,0.6,0.5,1.2,1.2,1.2c0.6,0,1.2-0.5,1.2-1.2v-9.3h1.1
						l-0.1,9.8h0v14.7c0,0.7,0.6,1.3,1.3,1.3c0.7,0,1.3-0.6,1.3-1.3V106h1.2v14.7c0,0.7,0.6,1.3,1.3,1.3c0.7,0,1.3-0.6,1.3-1.3V106
						h0l0-9.8h1v9.3c0,0.6,0.5,1.2,1.2,1.2c0.6,0,1.2-0.5,1.2-1.2V95.2C103.2,93.7,102,92.5,100.6,92.5z"/>
				</g>
				<g>
					<path class="st12" d="M79.6,86.1c-1.6,0-2.9,1.3-2.9,2.8c0,1.6,1.3,2.8,2.9,2.8c1.6,0,2.9-1.3,2.9-2.8
						C82.4,87.3,81.1,86.1,79.6,86.1z"/>
					<path class="st12" d="M83.5,92.5h-7.8c-1.5,0-2.7,1.2-2.7,2.7v10.4c0,0.6,0.5,1.2,1.2,1.2c0.6,0,1.2-0.5,1.2-1.2v-9.3h1.1
						l-0.1,9.8h0v14.7c0,0.7,0.6,1.3,1.3,1.3c0.7,0,1.3-0.6,1.3-1.3V106h1.2v14.7c0,0.7,0.6,1.3,1.3,1.3c0.7,0,1.3-0.6,1.3-1.3V106
						h0l0-9.8h1v9.3c0,0.6,0.5,1.2,1.2,1.2c0.6,0,1.2-0.5,1.2-1.2V95.2C86.1,93.7,84.9,92.5,83.5,92.5z"/>
				</g>
				<g>
					<path class="st12" d="M62.5,86.1c-1.6,0-2.9,1.3-2.9,2.8c0,1.6,1.3,2.8,2.9,2.8c1.6,0,2.9-1.3,2.9-2.8
						C65.3,87.3,64,86.1,62.5,86.1z"/>
					<path class="st12" d="M66.4,92.5h-7.8c-1.5,0-2.7,1.2-2.7,2.7v10.4c0,0.6,0.5,1.2,1.2,1.2c0.6,0,1.2-0.5,1.2-1.2v-9.3h1.1
						l-0.1,9.8h0v14.7c0,0.7,0.6,1.3,1.3,1.3c0.7,0,1.3-0.6,1.3-1.3V106h1.2v14.7c0,0.7,0.6,1.3,1.3,1.3c0.7,0,1.3-0.6,1.3-1.3V106
						h0l0-9.8h1v9.3c0,0.6,0.5,1.2,1.2,1.2c0.6,0,1.2-0.5,1.2-1.2V95.2C69,93.7,67.8,92.5,66.4,92.5z"/>
				</g>
			</g>
			<g class="st13">
				<g>
					<path class="st14" d="M198.9,39l2.4-1.6c-0.1-0.3-0.2-0.6-0.4-0.9c-0.1-0.3-0.2-0.7-0.4-0.9l-2.9,0.6c-0.3-0.6-0.8-1.1-1.3-1.5
						l1-2.7c-0.5-0.4-1.1-0.7-1.7-1l-2,2.1c-0.6-0.2-1.1-0.4-1.9-0.5l-0.7-2.7c-0.7,0-1.4,0.1-2,0.2l-0.3,2.9
						c-0.3,0.1-0.7,0.2-0.9,0.3c-0.3,0.1-0.6,0.3-0.9,0.4l-2.3-1.7c-0.5,0.4-1,0.8-1.5,1.3l1.4,2.5c-0.4,0.5-0.7,1.1-1,1.6l-2.9-0.1
						c-0.2,0.6-0.4,1.3-0.4,1.9l2.6,1.2c-0.1,0.6-0.1,1.3,0.1,2l-2.4,1.6c0.1,0.3,0.2,0.6,0.4,0.9c0.1,0.3,0.3,0.6,0.3,0.9l2.9-0.6
						c0.4,0.6,0.8,1,1.3,1.5l-1,2.7c0.5,0.4,1.1,0.7,1.7,1l2-2.1c0.6,0.2,1.3,0.4,1.8,0.4l0.9,2.7c0.6,0.1,1.3,0,1.9-0.1l0.3-2.9
						c0.4-0.1,0.6-0.2,0.9-0.3c0.3-0.2,0.6-0.3,0.9-0.4l2.3,1.7c0.6-0.4,1.1-0.8,1.5-1.3l-1.4-2.5c0.4-0.5,0.7-1.1,1-1.6l2.9,0.1
						c0.3-0.7,0.4-1.3,0.4-1.9L199,41C199,40.3,199,39.7,198.9,39z M192.9,45.3c-2.6,1.1-5.5-0.1-6.6-2.7c-1-2.6,0.2-5.5,2.7-6.6
						c2.6-1.1,5.5,0.2,6.6,2.7C196.7,41.3,195.4,44.2,192.9,45.3z"/>
				</g>
				<g>
					<path class="st14" d="M178.3,40.3c-0.1-0.5-0.3-1-0.6-1.5l1.6-1.8c-0.1-0.2-0.3-0.4-0.5-0.7c-0.1-0.2-0.3-0.5-0.5-0.6l-2.2,1.1
						c-0.4-0.4-0.8-0.7-1.4-0.9l0.2-2.4c-0.5-0.2-1.1-0.4-1.6-0.4l-1.1,2.2c-0.6,0-1-0.1-1.6,0l-1.2-2.1c-0.6,0.1-1.1,0.4-1.6,0.6
						l0.4,2.4c-0.3,0.2-0.5,0.3-0.7,0.4c-0.2,0.2-0.4,0.4-0.6,0.5l-2.2-0.9c-0.3,0.4-0.6,0.9-0.9,1.4l1.7,1.7
						c-0.2,0.5-0.4,1-0.4,1.5l-2.4,0.6c0,0.5-0.1,1.1,0.1,1.7l2.4,0.3c0.1,0.5,0.2,1.1,0.5,1.6l-1.6,1.8c0.2,0.2,0.3,0.4,0.5,0.7
						c0.2,0.2,0.4,0.4,0.5,0.6l2.2-1.1c0.4,0.4,0.9,0.6,1.4,0.9l-0.2,2.4c0.5,0.2,1.1,0.4,1.6,0.4l1.1-2.2c0.6,0,1.1,0,1.6-0.1
						l1.3,2c0.5-0.1,1-0.3,1.5-0.5l-0.4-2.4c0.3-0.2,0.5-0.3,0.7-0.4c0.2-0.2,0.5-0.4,0.6-0.5l2.2,0.9c0.4-0.5,0.7-0.9,0.9-1.4
						l-1.7-1.7c0.2-0.5,0.4-1,0.4-1.5l2.4-0.6c0.1-0.6,0.1-1.1-0.1-1.7L178.3,40.3z M174.3,45.2c-1.8,1.4-4.5,1.1-5.9-0.7
						c-1.4-1.8-1.1-4.5,0.7-5.9c1.8-1.4,4.5-1.1,5.9,0.7C176.5,41.1,176.1,43.7,174.3,45.2z"/>
				</g>
			</g>
			<rect x="45.9" y="31.3" class="st15" width="62" height="16"/>
			<g>
				<g>
					<rect x="54.6" y="144.3" class="st16" width="41.7" height="58.7"/>
					<rect x="54.6" y="173.3" class="st17" width="41.7" height="29.7"/>
				</g>
				<g>
					<rect x="102" y="144.3" class="st16" width="41.7" height="58.7"/>
					<rect x="102" y="173.3" class="st17" width="41.7" height="29.7"/>
				</g>
				<g>
					<rect x="149.3" y="144.3" class="st16" width="41.7" height="58.7"/>
					<rect x="149.3" y="173.3" class="st17" width="41.7" height="29.7"/>
				</g>
				<path class="st11" d="M75.4,152.5c-4.5,0-7.9,1.8-10.1,5.3c-2.2,3.4-3.3,8.8-3.3,15.8c0,6.9,1.1,12.2,3.3,15.8
					c2.3,3.6,5.6,5.5,10,5.5c4.5,0,8-1.8,10.2-5.3c2.2-3.5,3.3-8.8,3.3-15.9c0-6.8-1.1-12.1-3.4-15.6
					C83.2,154.3,79.8,152.5,75.4,152.5z M82.5,187c-1.5,2.9-3.8,4.3-7.1,4.3c-3.1,0-5.4-1.4-6.9-4.2c-1.6-2.9-2.4-7.4-2.4-13.5
					c0-5.8,0.8-10.3,2.3-13.3c1.5-2.9,3.8-4.3,7-4.3s5.6,1.4,7.1,4.3c1.5,3,2.3,7.4,2.3,13.3C84.8,179.5,84,184,82.5,187z"/>
				<path class="st11" d="M113.4,161.7l2.2,2.8l0.4-0.3c6.3-4.9,8-6.2,8.4-6.6c-0.2,2.4-0.2,4.7-0.2,7v29.8h3.8v-41.2h-3.1
					L113.4,161.7z"/>
				<path class="st11" d="M172,181.1c3.6-3.7,6.1-6.8,7.5-9.3c1.4-2.5,2.1-5.2,2.1-8c0-3.4-1.1-6.1-3.2-8.1c-2.1-2-5-2.9-8.6-2.9
					c-4.2,0-8.1,1.5-11.5,4.4l-0.4,0.3l2.1,2.7l0.4-0.3c2.9-2.3,6.1-3.5,9.3-3.5c2.4,0,4.3,0.7,5.8,2.1c1.5,1.4,2.2,3.2,2.2,5.5
					c0,1.6-0.3,3.1-0.8,4.5c-0.5,1.4-1.4,3-2.6,4.6c-1.2,1.6-3.3,4-6.3,7.1l-10.8,11.3v3.2h26.2v-3.7h-20.8L172,181.1z"/>
			</g>
			<rect x="58.4" y="298.8" class="st15" width="61.6" height="20.5"/>
			<rect x="125.5" y="298.8" class="st15" width="61.6" height="20.5"/>
			<g>
				<g>
					
						<ellipse transform="matrix(0.9738 -0.2274 0.2274 0.9738 -53.4808 34.4655)" class="st17" cx="122.8" cy="249.3" rx="24" ry="24"/>
				</g>
				<g>
					<path class="st18" d="M135.4,241l-14.3,14.3l-9.8-9.8c-0.5-0.5-1.4-0.5-1.9,0c-0.5,0.5-0.5,1.4,0,1.9l10.8,10.8
						c0.3,0.3,0.6,0.4,1,0.4c0.3,0,0.7-0.1,1-0.4l15.3-15.3c0.5-0.5,0.5-1.4,0-1.9C136.8,240.4,135.9,240.4,135.4,241z"/>
				</g>
			</g>
		</g>
		<g>
			<g class="st19">
				<g>
					<path class="st14" d="M204.6,0H41.1c-6.4,0-11.5,5.5-11.5,12.3v353.2c0,6.8,5.2,12.3,11.5,12.3h144.6h18.9
						c6.4,0,11.5-5.5,11.5-12.3V12.3C216.1,5.5,210.9,0,204.6,0z"/>
				</g>
			</g>
		</g>
		<g>
			<path class="st20" d="M47.8,205.9l-10.5-5.6c-9-5.7-21-3.1-26.8,6v0c-5.7,9-3.1,21,6,26.8l10.5,5.6c9,5.7,21,3.1,26.8-6
				C59.5,223.6,56.8,211.7,47.8,205.9z"/>
			<path class="st21" d="M47.8,205.9l-10.5-5.6c-9-5.7-21-3.1-26.8,6v0c-5.7,9-3.1,21,6,26.8l10.5,5.6c9,5.7,21,3.1,26.8-6
				C59.5,223.6,56.8,211.7,47.8,205.9z"/>
			<path class="st20" d="M43.2,246.1l-10.5-5.6c-9-5.7-21-3.1-26.8,6c-5.8,9-3.1,21,6,26.8l10.5,5.6c9,5.7,21,3.1,26.8-6
				C54.9,263.8,52.2,251.8,43.2,246.1z"/>
			<path class="st21" d="M43.2,246.1l-10.5-5.6c-9-5.7-21-3.1-26.8,6c-5.8,9-3.1,21,6,26.8l10.5,5.6c9,5.7,21,3.1,26.8-6
				C54.9,263.8,52.2,251.8,43.2,246.1z"/>
			<path class="st20" d="M35.5,287.1l-2.9-1.3c-9-5.7-21-3.1-26.8,6c-5.8,9-3.1,21,6,26.8l2.9,1.3c9,5.7,21,3.1,26.8-6
				C47.2,304.8,44.6,292.8,35.5,287.1z"/>
			<path class="st21" d="M35.5,287.1l-2.9-1.3c-9-5.7-21-3.1-26.8,6c-5.7,9-3.1,21,6,26.8l2.9,1.3c9,5.7,21,3.1,26.8-6
				C47.3,304.8,44.6,292.8,35.5,287.1z"/>
			<path class="st2" d="M12.3,300.6c-1.6,9.9,4.7,8.3,4.7,8.3s-1.6-13,13-20.8l-6.7,0.5C23.2,288.7,13.9,290.8,12.3,300.6z"/>
			<path class="st2" d="M17.5,256.3c-1.6,9.9,7.3,10.4,7.3,10.4s-1.6-13,13-20.8l-9.3-1.6C28.4,244.4,19.1,246.5,17.5,256.3z"/>
			<path class="st2" d="M23.9,217c-1.6,9.9,9.3,13.5,9.3,13.5s-1.6-13,13-20.8l-11.4-3.8C34.8,205.9,25.4,207.1,23.9,217z"/>
		</g>
	</g>
</g>
</svg>
